<?xml version="1.0" encoding="UTF-8" standalone="no"?>
<svg
   width="210mm"
   height="297mm"
   viewBox="0 0 210 297"
   version="1.1"
   id="svg1268"
   inkscape:version="1.3.2 (1:1.3.2+202311252150+091e20ef0f)"
   sodipodi:docname="cover_print.svg"
   inkscape:export-filename="cover_print.png"
   inkscape:export-xdpi="150"
   inkscape:export-ydpi="150"
   xmlns:inkscape="http://www.inkscape.org/namespaces/inkscape"
   xmlns:sodipodi="http://sodipodi.sourceforge.net/DTD/sodipodi-0.dtd"
   xmlns="http://www.w3.org/2000/svg"
   xmlns:svg="http://www.w3.org/2000/svg"
   xmlns:rdf="http://www.w3.org/1999/02/22-rdf-syntax-ns#"
   xmlns:cc="http://creativecommons.org/ns#"
   xmlns:dc="http://purl.org/dc/elements/1.1/">
  <defs
     id="defs1262" />
  <sodipodi:namedview
     id="base"
     pagecolor="#ffffff"
     bordercolor="#666666"
     borderopacity="1.0"
     inkscape:pageopacity="0.0"
     inkscape:pageshadow="2"
     inkscape:zoom="0.49497475"
     inkscape:cx="406.08132"
     inkscape:cy="580.83771"
     inkscape:document-units="mm"
     inkscape:current-layer="layer1"
     inkscape:document-rotation="0"
     showgrid="false"
     inkscape:window-width="1080"
     inkscape:window-height="1864"
     inkscape:window-x="0"
     inkscape:window-y="0"
     inkscape:window-maximized="1"
     inkscape:showpageshadow="2"
     inkscape:pagecheckerboard="0"
     inkscape:deskcolor="#d1d1d1"
     showguides="false" />
  <metadata
     id="metadata1265">
    <rdf:RDF>
      <cc:Work
         rdf:about="">
        <dc:format>image/svg+xml</dc:format>
        <dc:type
           rdf:resource="http://purl.org/dc/dcmitype/StillImage" />
      </cc:Work>
    </rdf:RDF>
  </metadata>
  <g
     inkscape:label="Layer 1"
     inkscape:groupmode="layer"
     id="layer1">
    <rect
       style="fill:#ffffff;fill-opacity:1;stroke:none;stroke-width:3.65169;stroke-linecap:square;stroke-miterlimit:10;stroke-dasharray:none;stroke-opacity:1;paint-order:markers fill stroke"
       id="rect1928"
       width="210.85889"
       height="303.11789"
       x="-0.41781062"
       y="-5.6149106" />
    <rect
       style="fill:none;fill-opacity:1;stroke:#202020;stroke-width:2.44773;stroke-linecap:square;stroke-miterlimit:10;stroke-dasharray:none;stroke-opacity:1;paint-order:markers fill stroke"
       id="rect1928-5"
       width="185.5143"
       height="265.87924"
       x="12.858739"
       y="15.394846" />
    <path
       style="font-size:26.4076px;line-height:1.25;font-family:'Liberation Sans';-inkscape-font-specification:'Liberation Sans';word-spacing:0px;stroke-width:0.896968"
       d="m 20.554956,68.627314 c 0,2.522757 0.397098,4.391464 1.191295,5.60612 0.794199,1.214655 1.991338,1.821988 3.59142,1.821988 1.121226,0 2.055578,-0.303677 2.803056,-0.910999 0.759162,-0.607333 1.226337,-1.541681 1.401527,-2.803055 l 3.188484,0.210231 c -0.245266,1.821978 -1.021946,3.276068 -2.330041,4.36227 -1.308094,1.086171 -2.96657,1.629272 -4.975429,1.629272 -2.651223,0 -4.677599,-0.835088 -6.079125,-2.505243 -1.38985,-1.681835 -2.084775,-4.128671 -2.084775,-7.340497 0,-3.188488 0.700764,-5.6178 2.102291,-7.287955 1.401528,-1.681837 3.410387,-2.522756 6.026574,-2.522756 1.938782,0 3.544699,0.502215 4.817751,1.506644 1.284736,1.004432 2.090617,2.388436 2.417637,4.152037 l -3.241035,0.245259 c -0.163511,-1.051143 -0.578131,-1.886221 -1.243859,-2.505233 -0.665722,-0.619013 -1.611753,-0.928514 -2.838092,-0.928514 -1.670158,0 -2.878974,0.55477 -3.626451,1.664321 -0.747486,1.10954 -1.121228,2.978247 -1.121228,5.60611 z m 31.569481,0.07006 c 0,3.316952 -0.729963,5.787147 -2.189898,7.410584 -1.459945,1.623438 -3.579766,2.435157 -6.359462,2.435157 -2.768016,0 -4.858643,-0.840923 -6.27185,-2.522748 -1.413217,-1.693514 -2.11981,-4.134515 -2.11981,-7.322993 0,-6.540478 2.832258,-9.810706 8.496755,-9.810706 2.896501,0 5.028012,0.80004 6.394511,2.400122 1.366499,1.588399 2.049754,4.058604 2.049754,7.410584 z m -3.311128,0 c 0,-2.616183 -0.391268,-4.514094 -1.173803,-5.693711 -0.770846,-1.191297 -2.073092,-1.78694 -3.90675,-1.78694 -1.845358,0 -3.182643,0.607323 -4.011887,1.821968 -0.817553,1.202987 -1.226335,3.089218 -1.226335,5.658683 0,2.499388 0.402927,4.379774 1.208811,5.641158 0.817553,1.249694 2.096451,1.874542 3.836684,1.874542 1.892076,0 3.24104,-0.607333 4.046914,-1.821989 0.817574,-1.214656 1.226366,-3.112566 1.226366,-5.693711 z M 68.08436,78.19273 V 66.174643 c 0,-1.249694 -0.12263,-2.219081 -0.367899,-2.90817 -0.245259,-0.689079 -0.636526,-1.185462 -1.173782,-1.489129 -0.537246,-0.303666 -1.325616,-0.455499 -2.3651,-0.455499 -1.518323,0 -2.715464,0.519742 -3.591425,1.559195 -0.875941,1.039474 -1.313916,2.481884 -1.313916,4.327232 v 10.984485 h -3.153429 v -14.90876 c 0,-2.207411 -0.03513,-3.556381 -0.105146,-4.046915 h 2.978257 c 0.0115,0.05843 0.02322,0.216099 0.03513,0.473017 0.0115,0.256944 0.02322,0.55477 0.03513,0.893473 0.02332,0.327026 0.04664,0.951873 0.06995,1.874541 h 0.05259 c 0.724118,-1.308091 1.559195,-2.230762 2.505213,-2.768014 0.957717,-0.548931 2.143169,-0.823397 3.556386,-0.823397 2.078937,0 3.59727,0.519732 4.554977,1.559192 0.969387,1.027794 1.45408,2.732988 1.45408,5.115592 v 12.631281 z m 15.206571,-0.140154 c -1.039464,0.280308 -2.102286,0.420462 -3.188468,0.420462 -2.522747,0 -3.784131,-1.430732 -3.784131,-4.292184 V 61.532055 h -2.189877 v -2.294998 h 2.312517 l 0.928503,-4.239629 h 2.102306 v 4.239629 h 3.503804 v 2.294998 h -3.503804 v 11.965561 c 0,0.910989 0.145999,1.55335 0.437976,1.927094 0.303656,0.362064 0.823398,0.54309 1.559205,0.54309 0.420451,0 1.027774,-0.08166 1.821969,-0.245258 z M 102.00136,68.69737 c 0,3.316952 -0.72997,5.787147 -2.189885,7.410584 -1.459946,1.623438 -3.579762,2.435157 -6.359448,2.435157 -2.768016,0 -4.858633,-0.840923 -6.271829,-2.522748 -1.413228,-1.693514 -2.119842,-4.134515 -2.119842,-7.322993 0,-6.540478 2.832259,-9.810706 8.496776,-9.810706 2.896517,0 5.028008,0.80004 6.394497,2.400122 1.366481,1.588399 2.049731,4.058604 2.049731,7.410584 z m -3.311115,0 c 0,-2.616183 -0.391258,-4.514094 -1.173762,-5.693711 -0.770847,-1.191297 -2.073109,-1.78694 -3.906788,-1.78694 -1.845347,0 -3.182633,0.607323 -4.011876,1.821968 -0.817563,1.202987 -1.226345,3.089218 -1.226345,5.658683 0,2.499388 0.402937,4.379774 1.208811,5.641158 0.817574,1.249694 2.096482,1.874542 3.836694,1.874542 1.892075,0 3.241045,-0.607333 4.046929,-1.821989 0.817555,-1.214656 1.226337,-3.112566 1.226337,-5.693711 z m 10.318785,-9.460312 v 12.018108 c 0,1.249694 0.12263,2.219081 0.36789,2.90818 0.24526,0.689079 0.63653,1.185452 1.1738,1.489119 0.53724,0.303666 1.3256,0.455499 2.36506,0.455499 1.51833,0 2.71547,-0.519731 3.59141,-1.559205 0.87596,-1.039464 1.31395,-2.481874 1.31395,-4.327222 V 59.237086 h 3.15345 v 14.908767 c 0,2.207411 0.0351,3.556366 0.10514,4.046904 h -2.97825 c -0.0115,-0.05845 -0.0232,-0.216096 -0.035,-0.473014 -0.0115,-0.256948 -0.0291,-0.548925 -0.0526,-0.875951 -0.0115,-0.338705 -0.0291,-0.969397 -0.0525,-1.892076 h -0.0526 c -0.72414,1.308102 -1.56506,2.236616 -2.52277,2.785551 -0.94604,0.537246 -2.12564,0.805874 -3.53885,0.805874 -2.07894,0 -3.6031,-0.513897 -4.57249,-1.541671 -0.95772,-1.039473 -1.43658,-2.750502 -1.43658,-5.133095 V 59.237082 Z m 16.94098,18.955668 V 63.651875 c 0,-1.33146 -0.0351,-2.803054 -0.10527,-4.41482 h 2.97826 c 0.0935,2.149011 0.14015,3.439589 0.14015,3.871719 h 0.07 c 0.50221,-1.623437 1.08035,-2.732977 1.73441,-3.328622 0.65403,-0.595651 1.57671,-0.893477 2.768,-0.893477 0.42047,0 0.84677,0.0584 1.2789,0.175193 v 2.890648 c -0.42047,-0.116795 -0.98109,-0.175182 -1.68183,-0.175182 -1.30811,0 -2.3067,0.56645 -2.99578,1.699349 -0.68907,1.12122 -1.03361,2.732978 -1.03361,4.835264 v 9.880789 z m 26.10346,-5.238211 c 0,1.78695 -0.6774,3.165129 -2.03222,4.134516 -1.34312,0.969386 -3.22935,1.45408 -5.65867,1.45408 -2.35924,0 -4.18123,-0.385423 -5.46596,-1.156269 -1.27305,-0.782505 -2.1023,-1.997171 -2.48773,-3.643957 l 2.78555,-0.543101 c 0.26863,1.016105 0.8234,1.763602 1.66432,2.24245 0.84091,0.467179 2.00885,0.700769 3.50382,0.700769 1.60008,0 2.76803,-0.245269 3.50383,-0.735818 0.74749,-0.490528 1.12123,-1.226325 1.12123,-2.207401 0,-0.747476 -0.25695,-1.354809 -0.77085,-1.821978 -0.51388,-0.46718 -1.34313,-0.852602 -2.48773,-1.156269 l -2.25995,-0.595643 c -1.81031,-0.467179 -3.10089,-0.922669 -3.87173,-1.366499 -0.75915,-0.45549 -1.3548,-1.004425 -1.78694,-1.646787 -0.43215,-0.642381 -0.64823,-1.430731 -0.64823,-2.365089 0,-1.728543 0.61318,-3.042479 1.83954,-3.941798 1.238,-0.910996 3.03663,-1.366494 5.39587,-1.366494 2.09063,0 3.7491,0.367903 4.97542,1.103709 1.23802,0.735797 2.02054,1.915415 2.34757,3.538852 l -2.83811,0.350385 c -0.17517,-0.840913 -0.64818,-1.483274 -1.41903,-1.927094 -0.75917,-0.4555 -1.78111,-0.683255 -3.06585,-0.683255 -1.42489,0 -2.47604,0.216076 -3.15342,0.648206 -0.67741,0.432141 -1.01612,1.086182 -1.01612,1.962143 0,0.537256 0.14015,0.981066 0.42044,1.33146 0.28032,0.350385 0.69495,0.648207 1.24386,0.893476 0.54894,0.245258 1.7052,0.583974 3.46879,1.016104 1.67015,0.420461 2.87313,0.811719 3.60891,1.173783 0.73582,0.350384 1.31396,0.741631 1.73442,1.173782 0.43213,0.432131 0.765,0.934349 0.9986,1.506643 0.23358,0.560605 0.35037,1.202976 0.35037,1.927094 z"
       id="path8"
       sodipodi:nodetypes="ssscccsscscscccssssssscsscsscscscscscssssssccscccccccscscccssccccccccccscsccssscsscsscscscscscssssssccscccccccscscccsccccssccscsccscsccccscsscccsscsccccsssssccccs" />
    <path
       style="font-weight:bold;font-size:11.2889px;line-height:1.25;font-family:'Liberation Sans';-inkscape-font-specification:'Liberation Sans Bold';word-spacing:0px;stroke-width:0.789564"
       d="m 26.0633,93.375071 q 0,1.733809 -0.962496,2.722668 -0.962496,0.982277 -2.663343,0.982277 -1.667886,0 -2.617194,-0.988865 -0.94931,-0.988859 -0.94931,-2.71608 0,-1.720623 0.94931,-2.702893 0.949308,-0.988869 2.656753,-0.988869 1.746986,0 2.663335,0.955908 0.922945,0.949308 0.922945,2.735854 z m -1.938179,0 q 0,-1.272337 -0.415323,-1.84588 -0.415316,-0.573535 -1.206413,-0.573535 -1.687662,0 -1.687662,2.419415 0,1.193228 0.408735,1.819509 0.415325,0.619691 1.193228,0.619691 1.707435,0 1.707435,-2.4392 z m 5.583788,-2.307344 v 5.880441 h -1.845887 v -5.880441 h -1.041596 v -1.252562 h 1.041596 v -0.744949 q 0,-0.969084 0.514219,-1.437145 0.514213,-0.468062 1.562408,-0.468062 0.520792,0 1.173442,0.105472 v 1.193228 q -0.270288,-0.05937 -0.540576,-0.05937 -0.474662,0 -0.672425,0.191181 -0.191181,0.184584 -0.191181,0.659244 v 0.560357 h 1.404182 v 1.252561 z m 7.897763,5.999105 q -0.817482,0 -1.259176,-0.441694 -0.441694,-0.448288 -0.441694,-1.351449 v -4.205962 h -0.903161 v -1.252562 h 0.995467 l 0.580133,-1.674483 h 1.160274 v 1.674483 h 1.351461 v 1.252562 h -1.351461 v 3.704939 q 0,0.520798 0.197781,0.771314 0.19776,0.243918 0.613096,0.243918 0.217544,0 0.61968,-0.09232 v 1.147085 q -0.685597,0.224142 -1.5624,0.224142 z m 4.496035,-5.827707 q 0.375777,-0.817463 0.94271,-1.186638 0.566942,-0.369178 1.351471,-0.369178 1.133885,0 1.740376,0.698803 0.606501,0.698793 0.606501,2.04365 v 4.522406 h -1.845872 v -3.99501 q 0,-1.878841 -1.272334,-1.878841 -0.672428,0 -1.087753,0.580131 -0.408741,0.573544 -0.408741,1.476706 v 3.817014 H 40.27662 v -9.783159 h 1.852445 v 2.669932 q 0,0.718578 -0.0527,1.404184 z m 9.341468,5.840891 q -1.608543,0 -2.472167,-0.949315 -0.863593,-0.955896 -0.863593,-2.781994 0,-1.766779 0.876793,-2.716088 0.876783,-0.94931 2.485336,-0.94931 1.536021,0 2.346898,1.02183 0.810886,1.015234 0.810886,2.979774 v 0.05278 h -4.575141 q 0,1.041605 0.382352,1.5756 0.388936,0.527385 1.100932,0.527385 0.982268,0 1.239371,-0.850424 l 1.746981,0.151632 q -0.758108,1.938173 -3.078648,1.938173 z m 0,-6.229843 q -0.652654,0 -1.008636,0.454875 -0.349388,0.454883 -0.369183,1.272336 h 2.768818 q -0.0527,-0.863601 -0.415325,-1.292111 -0.362578,-0.4351 -0.975674,-0.4351 z"
       id="path9" />
    <path
       style="font-weight:bold;font-size:11.2889px;line-height:1.25;font-family:'Liberation Sans';-inkscape-font-specification:'Liberation Sans Bold';word-spacing:0px;stroke-width:0.789564"
       d="m 21.733643,49.686598 c -0.544988,0 -0.964712,-0.147231 -1.259175,-0.441694 -0.294463,-0.298858 -0.441694,-0.749341 -0.441694,-1.351448 v -4.205962 h -0.903162 v -1.252562 h 0.995468 l 0.580132,-1.674483 h 1.160275 v 1.674483 h 1.351461 v 1.252562 h -1.351461 v 3.704939 c 0,0.347199 0.06593,0.604304 0.197781,0.771314 0.13184,0.162612 0.336205,0.243917 0.613095,0.243917 0.14503,0 0.35159,-0.03077 0.61968,-0.09232 v 1.147084 c -0.457064,0.149429 -0.977864,0.224143 -1.5624,0.224143 z m 4.496035,-5.827706 c 0.250519,-0.544976 0.564755,-0.940522 0.94271,-1.186639 0.377962,-0.246118 0.828452,-0.369177 1.351471,-0.369177 0.755923,0 1.33605,0.232934 1.740376,0.698803 0.404334,0.465861 0.606501,1.147078 0.606501,2.04365 v 4.522406 h -1.845871 v -3.99501 c 0,-1.252561 -0.424111,-1.878841 -1.272334,-1.878841 -0.448286,0 -0.81087,0.193377 -1.087753,0.580131 -0.272494,0.382363 -0.408741,0.874598 -0.408741,1.476705 v 3.817015 h -1.852446 v -9.783159 h 1.852446 v 2.669932 c 0,0.479052 -0.01757,0.947113 -0.0527,1.404184 z m 9.341469,5.840891 c -1.072362,0 -1.896418,-0.316438 -2.472167,-0.949315 -0.575729,-0.637264 -0.863594,-1.564596 -0.863594,-2.781994 0,-1.177854 0.292265,-2.083216 0.876794,-2.716088 0.584521,-0.632873 1.412967,-0.94931 2.485336,-0.94931 1.024014,0 1.806313,0.340609 2.346897,1.021829 0.540592,0.676824 0.810887,1.670082 0.810887,2.979775 v 0.05278 h -4.575141 c 0,0.694403 0.12745,1.219604 0.382351,1.5756 0.259291,0.351591 0.626268,0.527386 1.100932,0.527386 0.654845,0 1.067969,-0.283475 1.239371,-0.850425 l 1.746981,0.151632 c -0.505405,1.292116 -1.531621,1.938174 -3.078647,1.938174 z m 0,-6.229844 c -0.435102,0 -0.771315,0.151625 -1.008637,0.454876 -0.232925,0.303255 -0.355986,0.727367 -0.369182,1.272336 h 2.768817 C 36.927015,44.621417 36.788573,44.190713 36.54682,43.90504 36.305102,43.614972 35.979877,43.469939 35.571147,43.469939 Z"
       id="path9-3"
       sodipodi:nodetypes="ccsccccccccccscscccccssssccsscsccccsccccssscscccsccccsccccs" />
    <path
       style="font-size:26.4076px;line-height:1.25;font-family:'Liberation Sans';-inkscape-font-specification:'Liberation Sans';word-spacing:0px;stroke-width:0.910205"
       d="m 21.664074,110.61649 v 12.19547 q 0,1.90223 0.373332,2.9511 0.373329,1.04888 1.191101,1.5111 0.817773,0.46223 2.399984,0.46223 2.311097,0 3.644421,-1.58222 1.333323,-1.58221 1.333323,-4.39108 v -11.1466 h 3.19998 v 15.1288 q 0,3.35997 0.106673,4.10663 h -3.022205 q -0.01778,-0.0889 -0.03556,-0.48002 -0.01777,-0.39109 -0.05333,-0.88886 -0.01777,-0.51555 -0.05333,-1.91998 h -0.05333 q -1.102218,1.99109 -2.559982,2.82663 -1.439992,0.81777 -3.591088,0.81777 -3.164422,0 -4.639967,-1.56442 -1.457764,-1.58221 -1.457764,-5.20885 v -12.8177 z m 29.333131,19.23543 v -12.19547 q 0,-1.90221 -0.373331,-2.95109 -0.373331,-1.04888 -1.1911,-1.51111 -0.817773,-0.46221 -2.399985,-0.46221 -2.311095,0 -3.644419,1.58221 -1.333325,1.58221 -1.333325,4.39108 v 11.14659 h -3.199978 v -15.12878 q 0,-3.35997 -0.106673,-4.10665 h 3.022201 q 0.01777,0.0889 0.03556,0.48001 0.01777,0.3911 0.03556,0.90665 0.03556,0.49778 0.07113,1.90222 h 0.05333 q 1.102213,-1.9911 2.542205,-2.80887 1.457766,-0.83556 3.608864,-0.83556 3.164422,0 4.622189,1.58222 1.475546,1.56443 1.475546,5.19107 v 12.81769 z m 20.088753,0 -6.506623,-8.78216 -2.346651,1.93777 v 6.84439 h -3.199978 v -26.38204 h 3.199978 v 16.47989 l 8.444386,-9.33328 h 3.751087 l -7.804392,8.26662 8.213278,10.96881 z m 18.364316,0 v -12.19547 q 0,-1.90221 -0.373331,-2.95109 -0.373329,-1.04888 -1.191101,-1.51111 -0.817774,-0.46221 -2.399991,-0.46221 -2.311088,0 -3.644418,1.58221 -1.33332,1.58221 -1.33332,4.39108 v 11.14659 h -3.199977 v -15.12878 q 0,-3.35997 -0.106641,-4.10665 h 3.022195 q 0.0178,0.0889 0.03562,0.48001 0.0178,0.3911 0.03551,0.90665 0.03562,0.49778 0.07113,1.90222 h 0.05331 q 1.102221,-1.9911 2.542208,-2.80887 1.457776,-0.83556 3.608869,-0.83556 3.164423,0 4.622186,1.58222 1.475551,1.56443 1.475551,5.19107 v 12.81769 z m 24.302116,-9.63548 q 0,5.04885 -2.22222,7.51995 -2.22221,2.47107 -6.45329,2.47107 -4.21335,0 -6.364437,-2.55998 -2.151114,-2.57775 -2.151114,-7.43104 0,-9.9555 8.622241,-9.9555 4.40883,0 6.48883,2.43555 2.07999,2.41775 2.07999,7.51995 z m -3.35998,0 q 0,-3.9822 -1.19111,-5.77775 -1.17334,-1.81331 -3.96441,-1.81331 -2.80889,0 -4.07113,1.84886 -1.244445,1.8311 -1.244445,5.7422 0,3.80442 1.226665,5.7244 1.24448,1.90222 3.89334,1.90222 2.87997,0 4.10666,-1.84889 1.24443,-1.84887 1.24443,-5.77773 z m 25.75983,9.63548 h -3.71555 l -3.35997,-13.59991 -0.63999,-3.00441 q -0.16,0.79999 -0.49777,2.31109 -0.33777,1.49332 -3.62665,14.29323 h -3.69775 l -5.38663,-19.23543 h 3.16441 l 3.25332,13.06659 q 0.12449,0.42666 0.76444,3.51998 l 0.30222,-1.31555 4.01776,-15.27102 h 3.43107 l 3.36,13.20881 0.81776,3.37776 0.5511,-2.47111 3.64443,-14.11546 h 3.12886 z m 12.78214,0.35554 q -2.89779,0 -4.35554,-1.52885 -1.45777,-1.52889 -1.45777,-4.19555 0,-2.98664 1.95553,-4.58662 1.97332,-1.6 6.34663,-1.70666 l 4.31997,-0.0711 v -1.04888 q 0,-2.34665 -0.99554,-3.35997 -0.99555,-1.01332 -3.12888,-1.01332 -2.15108,0 -3.12887,0.72888 -0.97776,0.72887 -1.17332,2.32887 l -3.34219,-0.30223 q 0.81776,-5.19107 7.7155,-5.19107 3.62663,0 5.45772,1.67111 1.8311,1.65332 1.8311,4.79996 v 8.2844 q 0,1.4222 0.37334,2.1511 0.37334,0.71111 1.42222,0.71111 0.46223,0 1.04887,-0.12449 v 1.99109 q -1.20888,0.28442 -2.47109,0.28442 -1.77776,0 -2.59553,-0.92442 -0.8,-0.94222 -0.90669,-2.93333 h -0.10675 q -1.22664,2.20444 -2.86219,3.12888 -1.61777,0.90666 -3.94664,0.90666 z m 0.72885,-2.39997 q 1.76,0 3.12889,-0.79998 1.36886,-0.8 2.15109,-2.18667 0.79999,-1.40443 0.79999,-2.87998 v -1.5822 l -3.5022,0.0711 q -2.25778,0.0355 -3.43108,0.46222 -1.15555,0.42665 -1.77778,1.31555 -0.6222,0.88887 -0.6222,2.32886 0,1.56444 0.83553,2.41775 0.85334,0.85333 2.41776,0.85333 z m 30.87981,-7.66217 q 0,10.06214 -7.07551,10.06214 -2.18666,0 -3.64443,-0.78221 -1.43998,-0.8 -2.34667,-2.55997 h -0.0355 q 0,0.55111 -0.0711,1.68887 -0.0711,1.11999 -0.10685,1.29777 h -3.0933 q 0.10675,-0.95999 0.10675,-3.96441 v -22.41763 h 3.19997 v 7.51995 q 0,1.15555 -0.0711,2.71999 h 0.0711 q 0.88888,-1.84889 2.34664,-2.64887 1.47555,-0.80001 3.64444,-0.80001 3.6444,0 5.35107,2.45333 1.72444,2.4533 1.72444,7.43105 z m -3.35998,0.10668 q 0,-4.03553 -1.06665,-5.77775 -1.06667,-1.7422 -3.46668,-1.7422 -2.70219,0 -3.9466,1.84887 -1.2267,1.84888 -1.2267,5.86663 0,3.78664 1.20893,5.59996 1.20887,1.79555 3.92884,1.79555 2.41776,0 3.4844,-1.77777 1.08446,-1.79555 1.08446,-5.81329 z m 7.34218,9.59993 v -26.38205 h 3.19997 v 26.38204 z m 10.54214,-8.94216 q 0,3.30664 1.36888,5.10219 1.36888,1.79553 3.99995,1.79553 2.08001,0 3.32444,-0.83554 1.26222,-0.83555 1.70666,-2.11554 l 2.80889,0.79999 q -1.72446,4.55106 -7.83999,4.55106 -4.26663,0 -6.5066,-2.54217 -2.22222,-2.54222 -2.22222,-7.55552 0,-4.76442 2.22222,-7.30661 2.23997,-2.54221 6.38218,-2.54221 8.47994,0 8.47994,10.22215 v 0.42667 z m 10.41771,-2.45332 q -0.26667,-3.03998 -1.54665,-4.42663 -1.28,-1.40444 -3.67999,-1.40444 -2.32886,0 -3.69775,1.56442 -1.35109,1.54667 -1.45778,4.26665 z"
       id="path10" />
    <path
       style="font-weight:bold;font-size:10.7002px;line-height:1.25;font-family:'Liberation Sans';-inkscape-font-specification:'Liberation Sans Bold';word-spacing:0px;stroke-width:0.789564"
       d="m 24.314104,151.86279 v -3.79293 q 0,-1.78087 -1.205988,-1.78087 -0.637361,0 -1.031025,0.54989 -0.387415,0.54364 -0.387415,1.3997 v 3.62421 h -1.755868 v -5.24886 q 0,-0.54362 -0.01874,-0.8873 -0.01251,-0.34992 -0.03124,-0.62488 h 1.674637 q 0.01874,0.11877 0.04997,0.63737 0.03124,0.51238 0.03124,0.70609 h 0.02499 q 0.356171,-0.77482 0.893554,-1.12475 0.537383,-0.34993 1.280972,-0.34993 1.074765,0 1.649641,0.66236 0.574875,0.66237 0.574875,1.93709 v 4.29281 z m 9.860354,-3.38677 q 0,1.6434 -0.912301,2.58069 -0.912302,0.93106 -2.524452,0.93106 -1.580906,0 -2.480709,-0.9373 -0.899804,-0.93729 -0.899804,-2.57445 0,-1.63089 0.899804,-2.56194 0.899803,-0.9373 2.518202,-0.9373 1.65589,0 2.524452,0.90606 0.874808,0.8998 0.874808,2.59318 z m -1.837102,0 q 0,-1.20598 -0.393662,-1.74962 -0.393666,-0.54362 -1.143503,-0.54362 -1.599651,0 -1.599651,2.29324 0,1.13101 0.387415,1.72464 0.393666,0.58736 1.131006,0.58736 1.618395,0 1.618395,-2.312 z m 4.961422,3.49925 q -0.774831,0 -1.19349,-0.41867 -0.418659,-0.42491 -0.418659,-1.28097 v -3.98664 h -0.856063 v -1.18724 h 0.943545 l 0.549881,-1.58716 h 1.099759 v 1.58716 h 1.280973 v 1.18724 h -1.280973 v 3.51176 q 0,0.49362 0.18746,0.73108 0.187459,0.2312 0.581125,0.2312 0.206204,0 0.58737,-0.0874 v 1.08727 q -0.649857,0.21244 -1.480928,0.21244 z m 5.298848,0.0123 q -1.524668,0 -2.343241,-0.89981 -0.81857,-0.90604 -0.81857,-2.63692 0,-1.67464 0.831068,-2.57444 0.831069,-0.89981 2.355737,-0.89981 1.455933,0 2.224516,0.96854 0.768583,0.9623 0.768583,2.82438 v 0.0499 h -4.336556 q 0,0.98729 0.36242,1.49343 0.368671,0.49988 1.043525,0.49988 0.931047,0 1.174742,-0.80608 l 1.655892,0.14373 q -0.718595,1.83711 -2.918116,1.83711 z m 0,-5.90496 q -0.618614,0 -0.956043,0.43113 -0.331176,0.43118 -0.349922,1.20601 h 2.624429 q -0.04999,-0.81858 -0.393666,-1.22473 -0.343673,-0.41241 -0.924798,-0.41241 z m 10.047813,3.80541 q 0,0.98102 -0.806074,1.54344 -0.799826,0.55611 -2.218267,0.55611 -1.393447,0 -2.137036,-0.4374 -0.737338,-0.44366 -0.981036,-1.3747 l 1.543414,-0.2312 q 0.131221,0.48114 0.449902,0.6811 0.32493,0.19996 1.124756,0.19996 0.73734,0 1.074767,-0.18746 0.337427,-0.18747 0.337427,-0.58739 0,-0.32491 -0.274941,-0.51238 -0.268693,-0.19371 -0.91855,-0.32493 -1.487177,-0.29368 -2.005814,-0.54362 -0.518638,-0.25621 -0.793578,-0.65611 -0.268692,-0.40616 -0.268692,-0.99354 0,-0.96853 0.74359,-1.50593 0.749837,-0.54361 2.118288,-0.54361 1.205989,0 1.937078,0.46864 0.737339,0.46866 0.918551,1.35593 l -1.555911,0.16249 q -0.07498,-0.41241 -0.36867,-0.61238 -0.293687,-0.2062 -0.931048,-0.2062 -0.624864,0 -0.937296,0.16246 -0.312432,0.15621 -0.312432,0.53114 0,0.29368 0.237448,0.46866 0.243699,0.16871 0.812323,0.28119 0.793579,0.16245 1.405946,0.33741 0.618614,0.16872 0.987285,0.40617 0.374917,0.23745 0.593619,0.61235 0.224951,0.36868 0.224951,0.9498 z m 11.39752,-1.4122 q 0,1.64341 -0.912299,2.5807 -0.912303,0.93105 -2.524452,0.93105 -1.580907,0 -2.48071,-0.93729 -0.899805,-0.93731 -0.899805,-2.57446 0,-1.63089 0.899805,-2.56194 0.899803,-0.93729 2.518202,-0.93729 1.655889,0 2.524449,0.90607 0.87481,0.8998 0.87481,2.59316 z m -1.837101,0 q 0,-1.20597 -0.393664,-1.74961 -0.393663,-0.54364 -1.1435,-0.54364 -1.599652,0 -1.599652,2.29325 0,1.13101 0.387415,1.72464 0.393664,0.58736 1.131006,0.58736 1.618395,0 1.618395,-2.312 z m 7.610847,3.38676 v -3.7929 q 0,-1.78088 -1.205988,-1.78088 -0.637361,0 -1.031027,0.54989 -0.387412,0.54364 -0.387412,1.39969 v 3.6242 h -1.755869 v -5.24884 q 0,-0.54364 -0.01874,-0.8873 -0.01251,-0.34994 -0.03124,-0.62486 h 1.674636 q 0.01874,0.11876 0.04997,0.63735 0.03124,0.5124 0.03124,0.70609 h 0.02499 q 0.356172,-0.77482 0.893556,-1.12477 0.537384,-0.34989 1.280972,-0.34989 1.074765,0 1.64964,0.66234 0.574877,0.66236 0.574877,1.93708 v 4.2928 z m 8.723099,0.11257 q -0.774829,0 -1.193489,-0.41866 -0.418659,-0.42492 -0.418659,-1.28096 v -3.98664 h -0.856064 v -1.18725 h 0.943545 l 0.549879,-1.58715 h 1.099762 v 1.58715 h 1.280971 v 1.18725 h -1.280971 v 3.51172 q 0,0.49365 0.187459,0.7311 0.187458,0.2312 0.581122,0.2312 0.206206,0 0.587374,-0.0875 v 1.08727 q -0.649858,0.21245 -1.480929,0.21245 z m 2.530702,-8.09199 v -1.29347 h 1.755869 v 1.29348 z m 0,7.97952 v -6.76104 h 1.755869 v 6.76104 z m 7.535859,0 v -3.79293 q 0,-1.78086 -1.024775,-1.78086 -0.531134,0 -0.868562,0.54363 -0.331178,0.54364 -0.331178,1.40595 v 3.62421 h -1.755868 v -5.24884 q 0,-0.54362 -0.01874,-0.8873 -0.01251,-0.34992 -0.03124,-0.62487 h 1.674635 q 0.01874,0.11877 0.04999,0.63737 0.03124,0.51239 0.03124,0.70609 h 0.02499 q 0.324929,-0.77482 0.806075,-1.12475 0.487394,-0.34994 1.162247,-0.34994 1.549664,0 1.880843,1.47469 h 0.0375 q 0.343675,-0.78732 0.824821,-1.131 0.481141,-0.34369 1.224729,-0.34369 0.987286,0 1.505923,0.67488 0.518637,0.66859 0.518637,1.92458 v 4.29281 H 92.57426 v -3.79293 q 0,-1.78086 -1.024776,-1.78086 -0.51238,0 -0.843564,0.49989 -0.324927,0.49364 -0.356171,1.36845 v 3.70545 z m 10.16654,0.12498 q -1.524667,0 -2.343238,-0.89983 -0.818581,-0.90603 -0.818581,-2.63691 0,-1.67463 0.831077,-2.57445 0.831068,-0.8998 2.355734,-0.8998 1.455943,0 2.224533,0.96853 0.7686,0.96229 0.7686,2.8244 v 0.0499 h -4.336585 q 0,0.98726 0.362407,1.4934 0.368669,0.49991 1.043541,0.49991 0.931051,0 1.174737,-0.80609 l 1.65592,0.14372 q -0.71861,1.83712 -2.918145,1.83712 z m 0,-5.90497 q -0.618622,0 -0.956053,0.43115 -0.331176,0.43117 -0.34991,1.20597 h 2.624438 q -0.0499,-0.81857 -0.39367,-1.22473 -0.343687,-0.41239 -0.924805,-0.41239 z m 9.466745,5.90497 q -0.98103,0 -1.53091,-0.53116 -0.54989,-0.53738 -0.54989,-1.50592 0,-1.04976 0.68111,-1.59964 0.68733,-0.54988 1.98706,-0.56238 l 1.45594,-0.0251 v -0.34367 q 0,-0.66236 -0.23121,-0.98104 -0.23119,-0.32493 -0.75607,-0.32493 -0.48739,0 -0.71861,0.22495 -0.22495,0.21871 -0.28118,0.7311 l -1.83086,-0.0874 q 0.16872,-0.98731 0.89982,-1.49344 0.73733,-0.5124 2.0058,-0.5124 1.28098,0 1.97458,0.63111 0.69358,0.63114 0.69358,1.79337 v 2.46198 q 0,0.56862 0.125,0.78731 0.1312,0.21247 0.43113,0.21247 0.19996,0 0.38743,-0.0376 v 0.94978 q -0.1562,0.0374 -0.28119,0.0687 -0.12497,0.0312 -0.24994,0.0499 -0.12499,0.0188 -0.26871,0.0312 -0.13746,0.0125 -0.32491,0.0125 -0.66237,0 -0.98105,-0.32493 -0.31244,-0.32493 -0.3749,-0.95605 h -0.0374 q -0.73735,1.33098 -2.22453,1.33098 z m 2.04331,-3.25556 -0.8998,0.0123 q -0.61238,0.0251 -0.86856,0.13747 -0.25621,0.1061 -0.39368,0.33118 -0.13122,0.22495 -0.13122,0.59987 0,0.48114 0.21871,0.71859 0.22495,0.2312 0.59361,0.2312 0.41242,0 0.74985,-0.22494 0.34368,-0.22495 0.53738,-0.61862 0.19371,-0.39992 0.19371,-0.84357 z m 7.89201,3.13058 v -3.79293 q 0,-1.78086 -1.20597,-1.78086 -0.63737,0 -1.03103,0.54987 -0.38742,0.54363 -0.38742,1.39971 v 3.62421 h -1.75587 v -5.24884 q 0,-0.54362 -0.0188,-0.8873 -0.0123,-0.34992 -0.031,-0.62487 h 1.67463 q 0.0188,0.11877 0.0499,0.63737 0.0311,0.51239 0.0311,0.70609 h 0.025 q 0.35616,-0.77482 0.89356,-1.12475 0.53739,-0.34994 1.28097,-0.34994 1.07478,0 1.64964,0.66238 0.57487,0.66236 0.57487,1.93708 v 4.29281 z m 7.81707,0 q -0.0251,-0.0938 -0.0626,-0.46866 -0.0312,-0.38116 -0.0312,-0.63111 h -0.0251 q -0.56864,1.22475 -2.16203,1.22475 -1.181,0 -1.8246,-0.91856 -0.6436,-0.9248 -0.6436,-2.5807 0,-1.68089 0.67484,-2.59316 0.6811,-0.91857 1.92458,-0.91857 0.7186,0 1.23723,0.29994 0.52489,0.29994 0.80609,0.89354 h 0.0125 l -0.0125,-1.11224 v -2.46822 h 1.75586 v 7.79831 q 0,0.62486 0.0499,1.47468 z m -0.0811,-3.41802 q 0,-1.09351 -0.36868,-1.68088 -0.36241,-0.59363 -1.07475,-0.59363 -0.7061,0 -1.04978,0.57489 -0.34367,0.56864 -0.34367,1.74336 0,2.2995 1.38094,2.2995 0.6936,0 1.07477,-0.6061 0.38117,-0.61239 0.38117,-1.73714 z m 9.8916,3.543 q -1.53717,0 -2.3745,-0.91232 -0.8373,-0.91854 -0.8373,-2.5557 0,-1.67463 0.84355,-2.60566 0.84357,-0.93731 2.39323,-0.93731 1.19349,0 1.97458,0.59988 0.78106,0.59986 0.98103,1.65588 l -1.76837,0.0874 q -0.075,-0.51863 -0.37491,-0.82482 -0.29994,-0.31243 -0.84983,-0.31243 -1.35593,0 -1.35593,2.26825 0,2.33698 1.38093,2.33698 0.4999,0 0.83732,-0.31242 0.33742,-0.31868 0.41865,-0.94354 l 1.76214,0.0812 q -0.0938,0.69361 -0.49991,1.23724 -0.39991,0.54364 -1.05601,0.84356 -0.65611,0.29371 -1.47467,0.29371 z m 5.86122,0 q -0.98105,0 -1.53091,-0.53116 -0.54989,-0.53738 -0.54989,-1.50592 0,-1.04976 0.68109,-1.59964 0.68737,-0.54988 1.98707,-0.56238 l 1.45593,-0.0251 v -0.34367 q 0,-0.66236 -0.23119,-0.98104 -0.23121,-0.32493 -0.75608,-0.32493 -0.4874,0 -0.7186,0.22495 -0.22495,0.21871 -0.28119,0.7311 l -1.83084,-0.0874 q 0.1687,-0.98731 0.89979,-1.49344 0.73735,-0.5124 2.00581,-0.5124 1.28098,0 1.97458,0.63111 0.69358,0.63114 0.69358,1.79337 v 2.46198 q 0,0.56862 0.12498,0.78731 0.13124,0.21247 0.43117,0.21247 0.19996,0 0.38742,-0.0376 v 0.94978 q -0.15622,0.0374 -0.28121,0.0687 -0.12496,0.0312 -0.24993,0.0499 -0.12496,0.0188 -0.26869,0.0312 -0.13747,0.0125 -0.32493,0.0125 -0.66236,0 -0.98104,-0.32493 -0.31243,-0.32493 -0.37492,-0.95605 h -0.0376 q -0.73734,1.33098 -2.22452,1.33098 z m 2.04329,-3.25556 -0.8998,0.0123 q -0.61236,0.0251 -0.86856,0.13747 -0.25618,0.1061 -0.39367,0.33118 -0.13122,0.22495 -0.13122,0.59987 0,0.48114 0.21871,0.71859 0.22495,0.2312 0.59362,0.2312 0.41242,0 0.74983,-0.22494 0.34369,-0.22495 0.53739,-0.61862 0.1937,-0.39992 0.1937,-0.84357 z m 5.16765,-3.63046 v 3.79293 q 0,1.78086 1.19973,1.78086 0.63735,0 1.02477,-0.54363 0.39367,-0.54989 0.39367,-1.40594 v -3.62422 h 1.75587 v 5.24885 q 0,0.86232 0.0499,1.51219 h -1.67463 q -0.075,-0.89983 -0.075,-1.34346 h -0.0312 q -0.34992,0.76857 -0.89355,1.1185 -0.53737,0.34994 -1.28098,0.34994 -1.07477,0 -1.64963,-0.65612 -0.57489,-0.66235 -0.57489,-1.93708 v -4.29282 z m 11.8599,4.78645 q 0,0.98105 -0.80607,1.54343 -0.79983,0.55614 -2.21826,0.55614 -1.39344,0 -2.13703,-0.43741 -0.73734,-0.44366 -0.98105,-1.37472 l 1.54341,-0.23119 q 0.13123,0.48115 0.44992,0.6811 0.32493,0.19996 1.12475,0.19996 0.73734,0 1.07476,-0.18746 0.33744,-0.18746 0.33744,-0.58736 0,-0.32495 -0.27495,-0.5124 -0.26869,-0.19372 -0.91855,-0.32492 -1.48717,-0.29372 -2.00583,-0.54365 -0.51862,-0.25619 -0.79356,-0.65609 -0.26869,-0.40617 -0.26869,-0.99355 0,-0.96854 0.74359,-1.50591 0.74983,-0.54365 2.11828,-0.54365 1.20599,0 1.93707,0.46864 0.73735,0.46867 0.91856,1.35597 l -1.55591,0.16248 q -0.075,-0.41242 -0.36868,-0.61237 -0.29367,-0.2062 -0.93104,-0.2062 -0.62486,0 -0.9373,0.16244 -0.31244,0.15623 -0.31244,0.53115 0,0.29368 0.23748,0.46864 0.24367,0.1687 0.81231,0.28118 0.79358,0.16248 1.40594,0.33743 0.61862,0.16872 0.9873,0.40618 0.37491,0.23745 0.59361,0.61236 0.22494,0.36867 0.22494,0.94978 z m 2.98062,2.09957 q -0.98105,0 -1.53093,-0.53116 -0.54988,-0.53738 -0.54988,-1.50592 0,-1.04976 0.6811,-1.59964 0.68736,-0.54988 1.98706,-0.56238 l 1.45595,-0.0251 v -0.34367 q 0,-0.66236 -0.23121,-0.98104 -0.23119,-0.32493 -0.75607,-0.32493 -0.48739,0 -0.7186,0.22495 -0.22495,0.21871 -0.28119,0.7311 l -1.83085,-0.0874 q 0.16871,-0.98731 0.8998,-1.49344 0.73735,-0.5124 2.00583,-0.5124 1.28097,0 1.97457,0.63111 0.69359,0.63114 0.69359,1.79337 v 2.46198 q 0,0.56862 0.12496,0.78731 0.13123,0.21247 0.43117,0.21247 0.19996,0 0.3874,-0.0376 v 0.94978 q -0.15621,0.0374 -0.28119,0.0687 -0.12494,0.0312 -0.24994,0.0499 -0.12496,0.0188 -0.26868,0.0312 -0.13747,0.0125 -0.32493,0.0125 -0.66237,0 -0.98103,-0.32493 -0.31244,-0.32493 -0.37495,-0.95605 h -0.0376 q -0.73734,1.33098 -2.22452,1.33098 z m 2.0433,-3.25556 -0.8998,0.0123 q -0.61238,0.0251 -0.86857,0.13747 -0.2562,0.1061 -0.39366,0.33118 -0.13124,0.22495 -0.13124,0.59987 0,0.48114 0.21872,0.71859 0.22494,0.2312 0.59362,0.2312 0.41242,0 0.74985,-0.22494 0.34367,-0.22495 0.53737,-0.61862 0.19371,-0.39992 0.19371,-0.84357 z m 3.51173,3.13058 v -9.27299 h 1.75587 v 9.27299 z m 3.55549,-7.97952 v -1.29347 h 1.75585 v 1.29348 z m 0,7.97952 v -6.76104 h 1.75585 v 6.76104 z m 5.28634,0.11257 q -0.77485,0 -1.19349,-0.41868 -0.41867,-0.42491 -0.41867,-1.28097 v -3.98664 h -0.85605 v -1.18724 h 0.94355 l 0.54986,-1.58716 h 1.09976 v 1.58716 h 1.28099 v 1.18724 h -1.28099 v 3.51174 q 0,0.49363 0.18746,0.7311 0.18746,0.23118 0.58113,0.23118 0.20621,0 0.58736,-0.0875 v 1.08726 q -0.64986,0.21244 -1.48091,0.21244 z m 3.40551,2.54318 q -0.63112,0 -1.10602,-0.0812 v -1.24973 q 0.33119,0.0499 0.6061,0.0499 0.37494,0 0.61864,-0.11875 0.24995,-0.11877 0.44364,-0.39368 0.19997,-0.27493 0.44367,-0.93104 l -2.67444,-6.6923 h 1.85586 l 1.06227,3.16808 q 0.24994,0.68109 0.63112,2.08703 l 0.15622,-0.59362 0.40615,-1.46844 0.99978,-3.19305 h 1.8371 l -2.67442,7.11721 q -0.53738,1.29972 -1.11851,1.7996 -0.57487,0.49991 -1.48716,0.49991 z"
       id="path11" />
    <text
       xml:space="preserve"
       style="font-size:12.6677px;line-height:1.25;font-family:'Mell Display 0.6';-inkscape-font-specification:'Mell Display 0.6, ';word-spacing:0px;stroke-width:0.316692"
       x="65.807213"
       y="293.98788"
       id="text10"><tspan
         sodipodi:role="line"
         id="tspan10"
         style="stroke-width:0.316692"
         x="65.807213"
         y="293.98788">Jencel Panic</tspan></text>
    <g
       id="g1"
       transform="translate(-19.795541,-170.35927)">
      <path
         id="path1831-9"
         style="fill:#666666;fill-opacity:1;stroke:#202020;stroke-width:1.83903;stroke-linecap:square;stroke-miterlimit:10;stroke-dasharray:none;stroke-opacity:1;paint-order:markers fill stroke"
         d="m 127.21277,365.68287 a 20.923791,20.782879 0 0 0 -1.04606,-0.0261 20.923791,20.782879 0 0 0 -20.92393,20.78302 20.923791,20.782879 0 0 0 20.92393,20.78255 20.923791,20.782879 0 0 0 20.92392,-20.78255 20.923791,20.782879 0 0 0 -0.003,-0.34665 h -19.8744 z" />
      <ellipse
         style="fill:#f2f2f2;fill-opacity:1;stroke:#202020;stroke-width:1.83903;stroke-linecap:square;stroke-miterlimit:10;stroke-dasharray:none;stroke-opacity:1;paint-order:markers fill stroke"
         id="path1831-8-2"
         cx="63.744061"
         cy="385.21786"
         rx="20.923792"
         ry="20.782877" />
      <path
         id="path1831-8-5-5"
         style="fill:#1a1a1a;fill-opacity:1;stroke:#202020;stroke-width:1.83903;stroke-linecap:square;stroke-miterlimit:10;stroke-dasharray:none;stroke-opacity:1;paint-order:markers fill stroke"
         d="m 194.16911,364.99046 a 20.923792,20.782879 0 0 0 -1.04606,-0.0265 20.923792,20.782879 0 0 0 -20.92393,20.78302 20.923792,20.782879 0 0 0 20.92393,20.78302 20.923792,20.782879 0 0 0 1.04606,-0.0265 z" />
      <path
         id="path1831-8-5-3-0"
         style="fill:#1a1a1a;fill-opacity:1;stroke:#202020;stroke-width:1.83903;stroke-linecap:square;stroke-miterlimit:10;stroke-dasharray:none;stroke-opacity:1;paint-order:markers fill stroke"
         d="m 127.02028,365.79424 a 20.923792,20.782879 0 0 0 -1.04606,-0.0265 20.923792,20.782879 0 0 0 -20.92391,20.78302 20.923792,20.782879 0 0 0 20.92391,20.78302 20.923792,20.782879 0 0 0 1.04606,-0.0265 z" />
      <path
         id="path1831-3"
         style="fill:#666666;fill-opacity:1;stroke:#202020;stroke-width:1.83903;stroke-linecap:square;stroke-miterlimit:10;stroke-dasharray:none;stroke-opacity:1;paint-order:markers fill stroke"
         d="m 64.845222,365.24489 a 20.923791,20.782879 0 0 0 -1.04606,-0.0261 20.923791,20.782879 0 0 0 -20.92393,20.78302 20.923791,20.782879 0 0 0 20.92393,20.78255 20.923791,20.782879 0 0 0 20.92392,-20.78255 20.923791,20.782879 0 0 0 -0.003,-0.34665 h -19.8744 z" />
      <path
         id="path1831-8-5-3-0-0"
         style="fill:#1a1a1a;fill-opacity:1;stroke:#202020;stroke-width:1.83903;stroke-linecap:square;stroke-miterlimit:10;stroke-dasharray:none;stroke-opacity:1;paint-order:markers fill stroke"
         d="m 64.652732,365.35626 a 20.923792,20.782879 0 0 0 -1.04606,-0.0265 20.923792,20.782879 0 0 0 -20.92391,20.78302 20.923792,20.782879 0 0 0 20.92391,20.78302 20.923792,20.782879 0 0 0 1.04606,-0.0265 z" />
    </g>
  </g>
</svg>
