<?xml version="1.0" encoding="UTF-8" standalone="no"?>
<svg
   width="210mm"
   height="297mm"
   viewBox="0 0 210 297"
   version="1.1"
   id="svg1268"
   inkscape:version="1.3.2 (1:1.3.2+202311252150+091e20ef0f)"
   sodipodi:docname="memories.svg"
   inkscape:export-filename="some.png"
   inkscape:export-xdpi="150"
   inkscape:export-ydpi="150"
   xmlns:inkscape="http://www.inkscape.org/namespaces/inkscape"
   xmlns:sodipodi="http://sodipodi.sourceforge.net/DTD/sodipodi-0.dtd"
   xmlns="http://www.w3.org/2000/svg"
   xmlns:svg="http://www.w3.org/2000/svg"
   xmlns:rdf="http://www.w3.org/1999/02/22-rdf-syntax-ns#"
   xmlns:cc="http://creativecommons.org/ns#"
   xmlns:dc="http://purl.org/dc/elements/1.1/">
  <defs
     id="defs1262" />
  <sodipodi:namedview
     id="base"
     pagecolor="#ffffff"
     bordercolor="#666666"
     borderopacity="1.0"
     inkscape:pageopacity="0.0"
     inkscape:pageshadow="2"
     inkscape:zoom="0.67852788"
     inkscape:cx="350.75935"
     inkscape:cy="360.33891"
     inkscape:document-units="mm"
     inkscape:current-layer="layer1"
     inkscape:document-rotation="0"
     showgrid="false"
     inkscape:window-width="1080"
     inkscape:window-height="1864"
     inkscape:window-x="0"
     inkscape:window-y="0"
     inkscape:window-maximized="1"
     inkscape:showpageshadow="2"
     inkscape:pagecheckerboard="0"
     inkscape:deskcolor="#d1d1d1"
     showguides="true" />
  <metadata
     id="metadata1265">
    <rdf:RDF>
      <cc:Work
         rdf:about="">
        <dc:format>image/svg+xml</dc:format>
        <dc:type
           rdf:resource="http://purl.org/dc/dcmitype/StillImage" />
      </cc:Work>
    </rdf:RDF>
  </metadata>
  <g
     inkscape:groupmode="layer"
     id="layer2"
     inkscape:label="Layer 2"
     sodipodi:insensitive="true">
    <rect
       style="fill:#ffffff;fill-opacity:1;stroke:none;stroke-width:3.61176;stroke-linecap:square;stroke-miterlimit:10;stroke-dasharray:none;stroke-opacity:1;paint-order:markers fill stroke"
       id="rect1928"
       width="210.85889"
       height="296.52594"
       x="-0.23385134"
       y="-0.81002337" />
    <rect
       style="opacity:1;fill:#cccccc;stroke:#cccccc;stroke-width:10.9398;stroke-linecap:round;stroke-linejoin:miter;stroke-dasharray:none;stroke-opacity:1;paint-order:stroke fill markers"
       id="rect7"
       width="174.255"
       height="61.679867"
       x="17.768995"
       y="149.7151" />
    <g
       id="g2"
       transform="translate(0.02504099,0.70220267)">
      <rect
         style="fill:#000000;stroke:#808285;stroke-width:0.0649999;stroke-linecap:round;stroke-linejoin:round;paint-order:stroke fill markers"
         id="rect1"
         width="184.58588"
         height="128.46899"
         x="11.665522"
         y="15.246861" />
    </g>
    <rect
       style="fill:#808080;stroke:#808080;stroke-width:10.5605;stroke-linecap:round;stroke-linejoin:miter;stroke-dasharray:none;stroke-opacity:1;paint-order:stroke fill markers"
       id="rect7-1"
       width="174.63428"
       height="57.352386"
       x="17.232809"
       y="84.790428" />
    <rect
       style="fill:none;fill-opacity:1;stroke:#202020;stroke-width:2.44773;stroke-linecap:square;stroke-miterlimit:10;stroke-dasharray:none;stroke-opacity:1;paint-order:markers fill stroke"
       id="rect1928-5"
       width="185.5143"
       height="265.87924"
       x="11.786285"
       y="15.842123" />
  </g>
  <g
     inkscape:label="Layer 1"
     inkscape:groupmode="layer"
     id="layer1"
     transform="translate(-71.383022,330.75055)">
    <path
       style="opacity:1;fill:#ffffff;stroke:#000000;stroke-width:1.48963;stroke-linecap:round;stroke-linejoin:miter;stroke-dasharray:none;stroke-opacity:1;paint-order:stroke fill markers"
       d="m 158.99775,-283.52359 c -0.22152,0.0252 -0.58483,0.42395 -0.66455,0.0752 -0.14566,-0.63728 0.10992,-1.35772 0.22137,-2.01425 0.2287,-1.34749 0.58156,-2.21477 1.06354,-3.35682 0.56292,-1.33376 1.15134,-2.63648 1.72814,-3.95334 0.50135,-1.14465 0.97986,-2.31886 1.50628,-3.43118 0.16918,-0.35748 0.3253,-0.79445 0.57619,-0.96916 0.83915,-0.58436 0.77854,0.31642 0.75292,1.19306 -0.0336,1.14665 -0.11642,2.2877 -0.17718,3.43118 -0.0278,0.52241 -0.081,1.04209 -0.0884,1.56645 -0.007,0.52261 -0.0311,1.05928 0.0442,1.56647 0.0208,0.14059 0.1367,0.25026 0.22136,0.2239 0.33995,-0.10591 0.66729,-0.33039 0.97473,-0.59654 0.21549,-0.18653 0.39385,-0.47744 0.5762,-0.74603 0.40894,-0.60243 0.78767,-1.26131 1.1961,-1.86474 0.31553,-0.46616 0.64895,-0.89685 0.97474,-1.34256 0.14685,-0.20091 0.26235,-0.50346 0.44319,-0.5973 0.0704,-0.0368 0.10188,0.18559 0.13301,0.29827 0.007,0.0255 0.20815,1.1719 0.35437,1.26818 0.26453,0.1742 0.55778,0.23751 0.84173,0.2239 0.24357,-0.0122 0.47901,-0.16371 0.70918,-0.29826 0.83442,-0.48771 1.64792,-1.07259 2.48103,-1.56646 0.40821,-0.24198 0.86542,-0.5157 1.28495,-0.0742 0.0913,0.096 0.0843,0.34126 0.0888,0.52214 0.0106,0.4231 -0.0329,0.84519 -0.0442,1.26821 -0.0122,0.43914 -0.007,0.73477 0.22137,1.11868 0.0891,0.15024 0.2312,0.17785 0.35437,0.22389 0.27729,0.10365 0.55799,0.2444 0.84173,0.22311 0.39062,-0.0293 0.76601,-0.26687 1.15192,-0.37264 0.60424,-0.16559 1.28452,-0.3197 1.86113,0.2239 0.11583,0.10932 0,0.44727 0,0.67089 0,1.45204 0.0794,1.1885 -0.26601,2.61078 -0.0264,0.10838 -0.33743,0.67718 -0.31017,0.74604 0.0655,0.16571 0.24449,0.0718 0.35482,0 0.77854,-0.50635 1.65611,-1.84925 2.61403,-1.26819 0.12815,0.0777 0.0849,0.44243 0.0884,0.67166 0.0384,2.52599 -0.0122,2.15429 -0.53155,4.62424 -0.063,0.29952 -0.30972,1.45239 -0.4432,1.86473 -0.0659,0.20381 -0.10602,0.0749 -0.13253,0.29903 -0.008,0.0729 0,0.14875 0,0.22312 -0.0886,0.572 -0.15155,1.15712 -0.266,1.71598 -0.0348,0.16954 -0.0909,0.34276 -0.1772,0.44778 -0.13869,0.16868 -0.79417,0.65565 -1.01938,0.82042 -2.79526,2.04514 -0.63838,0.35507 -2.5252,2.01347 -0.0415,0.0364 -0.0886,0.0502 -0.13301,0.0752 -0.0887,0.0498 -0.18243,0.0784 -0.26601,0.14874 -0.0374,0.0314 -0.0565,0.10413 -0.0884,0.14953 -0.65187,0.92891 -0.32204,0.36948 -0.88637,1.34256 -0.47426,0.81776 -0.93033,1.66603 -1.41793,2.46125 -2.72659,4.44677 -0.48575,1.04256 -1.94948,2.61076 -2.36417,2.53289 -0.12897,0.38635 -1.28492,1.41695 -0.13437,0.11976 -0.27695,0.21975 -0.39855,0.3734 -0.0165,0.0212 0.0268,0.055 0.0442,0.0744 0.20455,0.22962 0.42083,0.42983 0.62037,0.67166 0.58911,0.71402 1.70776,2.62598 1.94948,3.05777 0.90329,1.61369 1.74773,4.32345 2.30385,5.9676 0.15935,0.47111 0.33339,1.07913 0.17763,1.64082 -0.0742,0.26766 -0.47383,0.56781 -0.62036,0.59653 -2.87006,0.56249 -0.56465,0.096 -2.21549,0 -0.96813,-0.0564 -1.95869,-0.0625 -2.92422,0.14952 -5.82051,1.27876 0.0807,0.18128 -2.88005,0.59653 -0.4291,0.0603 -0.85457,0.19898 -1.28491,0.22389 -0.41354,0.024 -2.40584,-0.17702 -2.74704,-0.22389 -0.23746,-0.0326 -0.47178,-0.11619 -0.7092,-0.14952 -0.65098,-0.0914 -1.78439,-0.18659 -2.48103,-0.22313 -0.50601,-0.0266 -0.45374,0.0801 -1.10775,-0.14951 -0.11016,-0.0386 -0.20861,-0.14245 -0.31017,-0.22389 -0.20874,-0.16734 -0.41829,-0.33312 -0.62039,-0.52216 -0.24688,-0.23093 -0.33789,-0.56543 -0.44272,-1.0443 -0.0411,-0.18806 -0.0477,-0.39618 -0.0447,-0.59653 0.0122,-0.77219 0.0272,-1.54705 0.0888,-2.31251 0.0134,-0.16514 0.0887,-0.29797 0.133,-0.447 0.0442,-0.14924 0.0838,-0.30288 0.13301,-0.44778 0.009,-0.0305 0.0465,-0.0395 0.0442,-0.0743 -0.0252,-0.37759 -0.15738,-0.95484 -0.26599,-1.2682 -0.0316,-0.0911 -0.092,-0.14409 -0.13302,-0.22389 -0.15101,-0.29362 -0.30591,-0.58285 -0.44273,-0.89556 -0.0704,-0.16122 -0.15975,-0.32333 -0.17719,-0.52138 -0.0625,-0.71083 -0.0169,-1.81961 0.13256,-2.53639 0.12273,-0.58851 0.30068,-1.14023 0.44317,-1.71599 0.0791,-0.31949 0.16007,-0.63879 0.22137,-0.96915 0.0197,-0.10638 0.0246,-0.41521 -0.13253,-0.2239 -0.23762,0.28913 -0.44518,0.64256 -0.66457,0.96994 -0.43044,0.64232 -0.85783,1.29044 -1.28492,1.9391 -0.77712,1.18026 -0.30432,0.63273 -1.37374,1.56646 -0.11725,0.10235 -0.22487,0.25463 -0.35438,0.29826 -0.31991,0.10779 -0.64966,0.10259 -0.97474,0.14951 -0.19192,0.0277 -0.38474,0.11027 -0.57619,0.0745 -0.97265,-0.18236 -1.07879,-0.39395 -1.90529,-1.19383 -0.29857,-0.28895 -0.61177,-0.54396 -0.88593,-0.89479 -0.10105,-0.1294 -0.14004,-0.35788 -0.22136,-0.52215 -0.14057,-0.28397 -0.2948,-0.54797 -0.44318,-0.82042 -0.33915,-0.62261 -0.65259,-1.28831 -1.01939,-1.86472 -0.082,-0.12907 -0.20096,-0.17642 -0.30972,-0.2239 -0.29165,-0.12732 -0.58918,-0.21496 -0.88638,-0.29826 -0.14645,-0.0411 -0.30031,-0.007 -0.44319,-0.0743 -0.71233,-0.0482 -1.25852,-0.85337 -1.9053,-1.19383 -0.49574,-0.26096 -1.0006,-0.47216 -1.5063,-0.67167 -0.43986,-0.17354 -0.88688,-0.2913 -1.3291,-0.447 -0.19295,-0.068 -0.40111,-0.0715 -0.57619,-0.2239 -0.26231,-0.22836 -0.5166,-0.5173 -0.70874,-0.89479 -0.17195,-0.3378 -0.22789,-0.80321 -0.35436,-1.19382 -0.0509,-0.15746 -0.11417,-0.30317 -0.17719,-0.44778 -0.0995,-0.22852 -0.19111,-0.4706 -0.3102,-0.67091 -0.0856,-0.14408 -0.28984,-0.3007 -0.399,-0.44779 -0.0438,-0.059 -0.15892,-0.30574 -0.22136,-0.29826 -0.41191,0.0494 -0.59027,0.3347 -0.93056,0.67168 -0.35376,0.35031 -0.71162,0.68886 -1.06355,1.04431 -0.38462,0.38844 -1.18969,1.27898 -1.6393,1.64084 -0.0991,0.0797 -0.52134,0.31695 -0.62037,0 -0.11867,-0.37988 -0.0931,-0.84411 -0.13255,-1.26819 -0.15216,-1.64051 -0.15872,-2.27629 0,-4.32599 0.0513,-0.66395 0.19592,-1.2983 0.30972,-1.93987 1.58828,-8.9532 0.16675,-1.21782 0.97521,-4.84813 0.0983,-0.44165 0.19532,-0.88594 0.26554,-1.34256 0.0336,-0.21808 -0.0233,-0.47709 0.0442,-0.67167 0.0499,-0.14417 0.17424,-0.16077 0.266,-0.22389 0.23366,-0.16076 0.46517,-0.33832 0.7092,-0.44701 0.76201,-0.3394 0.90463,-0.0992 1.68347,-0.52216 0.17614,-0.0956 0.33222,-0.27794 0.48737,-0.44778 0.43622,-0.47747 0.85647,-0.9951 1.28494,-1.49209 0.23607,-0.27385 0.44577,-0.62804 0.70872,-0.82041 0.42434,-0.31046 0.87418,-0.53331 1.32958,-0.6709 0.13394,-0.0405 0.2778,0.0431 0.39853,0.14874 0.25453,0.22268 0.50173,0.487 0.70921,0.82042 0.12457,0.20018 0.18453,0.49022 0.26554,0.74603 0.33545,1.05937 0.61795,2.09261 0.88639,3.20731 0.0826,0.34251 0.11358,0.72238 0.22138,1.04431 0.21936,0.65473 0.46384,1.29241 0.75335,1.86471 0.0605,0.11965 0.17229,0.15578 0.26555,0.14953 0.28398,-0.019 0.5689,-0.0925 0.84221,-0.22389 0.55091,-0.26487 0.8644,-1.36903 1.15192,-2.01425 0.99376,-2.23027 -0.74472,1.50077 0.8859,-2.31173 0.0635,-0.14812 0.40645,-0.55345 0.53202,-0.44778 0.29689,0.24989 0.48602,1.03101 0.6199,1.4921 0.25241,0.8692 0.46092,1.7779 0.75339,2.61077 0.0956,0.27241 0.26087,0.45627 0.39901,0.67089 0.24599,0.38216 0.48129,0.78932 0.75291,1.11868 0.10235,0.12411 0.23415,0.15948 0.35437,0.22388 0.20491,0.1098 0.40992,0.22374 0.62036,0.29826 0.0723,0.0256 0.14875,0.0189 0.22185,0 0.17864,-0.0461 0.57949,-0.36974 0.7529,0 0.0301,0.0644 0.33051,1.59378 0.39902,1.93988 0.0738,0.3729 0.0829,0.80229 0.22136,1.11867 0.0864,0.19722 0.25782,0.2389 0.399,0.29827 0.38071,0.1601 0.65726,-0.30686 0.97475,-0.59652 0.13366,-0.12196 0.26696,-0.24518 0.39854,-0.37342 0.14903,-0.14526 0.28421,-0.33555 0.44319,-0.447 0.0304,-0.0214 0.072,0.0263 0.0883,0.0742 0.28054,0.82674 0.28478,1.10726 0.44319,2.01426 0.0131,0.0753 0.033,0.14705 0.0442,0.22311 0.004,0.0242 -0.007,0.0528 0,0.0752 0.009,0.0314 0.0352,0.0429 0.0447,0.0743 0.007,0.0222 -0.0143,0.0684 0,0.0742 0.40115,0.16926 0.67889,0.0233 1.10774,-0.14874 0.0643,-0.0258 0.11583,-0.10814 0.17718,-0.14951 0.0866,-0.0583 0.17982,-0.0869 0.26556,-0.14876 0.0193,-0.0139 0.033,-0.0456 0.0447,-0.0752 0.0773,-0.1949 0.0163,-0.13044 0.0884,-0.37264 0.0238,-0.0802 0.0605,-0.14782 0.0888,-0.22389 0.17301,-0.46525 0.1389,-0.42542 0.35436,-0.96993 0.21169,-0.535 0.0502,-0.0947 0.39855,-0.59653 0.0252,-0.036 0.0239,-0.10542 0.0446,-0.14873 0.0394,-0.0824 0.0983,-0.13606 0.133,-0.2239 0.0259,-0.0655 0.0296,-0.14926 0.0442,-0.2239 0.0148,-0.0747 0.0366,-0.14631 0.0442,-0.22388 0.007,-0.0736 0,-0.14926 0,-0.2239 0,-0.0747 0.0139,-0.15306 0,-0.22388 0.0397,-0.19726 -0.10555,-0.1829 -0.13302,-0.29826 -0.0227,-0.0951 -0.0321,-0.19779 -0.0442,-0.29826 -0.004,-0.0242 -0.009,-0.055 0,-0.0742 0.1111,-0.23389 0.31812,-0.37852 0.35437,-0.67169 0.0461,-0.37229 -0.10673,-0.74097 -0.13302,-1.11867 -0.0235,-0.33854 0.0448,-0.0754 0.0888,-0.14951 0.0106,-0.0176 0,-0.0496 0,-0.0745 0,-0.0496 0,-0.0992 0,-0.14872 0,-0.0499 -0.0208,-0.11429 0,-0.14952 0.14491,-0.24393 0.087,-0.0234 0.17718,-0.0744 0.0313,-0.0178 0.0582,-0.0544 0.0888,-0.0753 0.0431,-0.0293 0.0892,-0.0453 0.13254,-0.0743 0.004,-10e-4 0.17403,-0.14609 0.17718,-0.14875"
       id="path7" />
    <path
       style="opacity:1;fill:#ffffff;stroke:#000000;stroke-width:1.84874;stroke-linecap:round;stroke-linejoin:miter;stroke-dasharray:none;stroke-opacity:1;paint-order:stroke fill markers"
       d="m 125.66674,-286.24193 c -0.99044,-0.16516 -2.50933,-0.39835 -3.27918,-0.70634 -0.44652,-0.17865 -0.87993,-0.46691 -1.16014,-0.85779 -0.47978,-0.66931 -1.03982,-2.30131 -0.85777,-3.22888 0.36211,-1.84517 1.15285,-4.6017 2.37109,-6.25601 1.09681,-1.48943 2.31027,-2.89497 3.58205,-4.23812 0.92269,-0.97445 3.68277,-2.87569 4.89309,-2.87569 1.45762,0 2.49444,2.06347 2.8757,3.12774 0.59384,1.65767 1.09148,3.3494 1.56413,5.04558 0.38538,1.383 0.66946,2.79225 1.00871,4.18728 0.11464,0.47165 0.20922,0.94915 0.35317,1.4127 0.0106,0.0359 0.0773,0.0796 0.10105,0.0502 0.21475,-0.2643 0.37255,-0.57018 0.55492,-0.85777 0.25482,-0.40183 0.5094,-0.8039 0.75665,-1.21044 0.74488,-1.2247 1.47904,-2.4559 2.21966,-3.68318 0.38597,-0.63955 0.77852,-1.27514 1.16015,-1.91731 0.67775,-1.14051 1.31295,-2.30672 2.0179,-3.43061 0.45609,-0.72715 0.97173,-1.41522 1.46301,-2.11905 0.13089,-0.18752 0.18643,-0.48283 0.40348,-0.55491 0.14719,-0.0489 -0.0236,0.31962 -0.10058,0.4543 -0.85144,1.49057 -0.80346,1.43171 -1.81617,2.26995 -0.24888,0.20601 -0.49821,0.41187 -0.75665,0.60575 -0.0137,0.009 -0.0615,0.0134 -0.0508,0 0.61575,-0.77803 1.4264,-1.63525 1.96761,-2.47223 5.5495,-8.58227 1.94451,-2.80868 4.13696,-7.01267 0.33762,-0.64736 0.68766,-1.28868 1.059,-1.9173 0.0668,-0.11323 0.12786,-0.34441 0.25258,-0.30287 0.19478,0.0649 0.32148,0.30176 0.35318,0.5046 0.27728,1.77456 0.17627,3.02735 -0.0502,4.74271 -0.147,1.11285 -0.38354,2.21354 -0.50461,3.32949 -0.0308,0.28475 -0.20396,0.72592 0.0502,0.85778 0.4452,0.23091 1.88454,-0.34881 2.32079,-0.5046 1.07688,-0.38457 2.13969,-0.81028 3.22835,-1.16014 0.32661,-0.10496 0.68615,-0.31714 1.00922,-0.20173 0.68523,0.24475 1.34439,0.65701 1.81617,1.21094 0.34475,0.40479 0.48386,0.98202 0.50408,1.51331 0.1188,3.12028 -0.0106,3.79701 -1.66472,6.10459 -0.51377,0.71691 -2.07219,1.39603 -2.62315,1.71556 -0.24207,0.1404 -0.45767,0.32544 -0.70634,0.45379 -0.27464,0.14173 -0.57323,0.23138 -0.85726,0.35318 -0.0693,0.0297 -0.15451,0.15945 -0.20227,0.10106 -0.14841,-0.18126 -0.21357,-0.42497 -0.25205,-0.65605 -0.0469,-0.28205 0,-0.57185 0,-0.85778 0,-0.0167 0.005,-0.0662 0,-0.0502 -0.0386,0.11606 -0.0608,0.23745 -0.10058,0.35316 -0.0623,0.18053 -0.49861,1.45907 -0.70636,1.76588 -0.22089,0.32626 -0.45526,0.65432 -0.75666,0.90809 -0.34644,0.29171 -0.76869,0.47946 -1.16065,0.70636 -0.24738,0.14319 -0.49246,0.29434 -0.75665,0.40347 -0.51117,0.21114 -1.04389,0.36584 -1.56361,0.5549 -0.30016,0.1091 -1.28978,0.49916 -1.51382,0.60577 -0.0759,0.0361 -0.13961,0.0944 -0.20176,0.15089 -0.30814,0.28006 -0.59758,0.58037 -0.90807,0.85779 -0.16059,0.14348 -0.3354,0.27018 -0.5041,0.40399 -0.62694,0.49738 -0.93919,0.70598 -1.46299,1.21045 -0.29127,0.2805 -0.59222,0.55287 -0.85779,0.85779 -0.19006,0.21819 -0.33323,0.47321 -0.50462,0.70634 -0.24904,0.33877 -0.52085,0.66113 -0.75666,1.00922 -0.11819,0.17447 -0.26819,0.34706 -0.30285,0.55492 -0.021,0.12634 0.0541,0.26981 0.15142,0.35317 0.38602,0.33091 0.83819,0.57581 1.26126,0.85779 0.33382,0.22249 0.6794,0.42721 1.00924,0.65552 1.62814,1.12706 2.97788,1.88371 4.03582,3.63288 0.65424,1.08168 0.73538,1.9074 0.75666,3.02715 0.0272,1.43064 0.20861,1.87196 -0.60576,3.07743 -0.15435,0.22849 -0.42828,0.34839 -0.6555,0.50462 -0.58037,0.39899 -1.17211,0.78136 -1.76589,1.16012 -1.13276,0.72258 -2.10873,1.24377 -3.32948,1.91731 -0.25026,0.1381 -0.48844,0.30464 -0.75665,0.40349 -3.08179,1.13565 0.0514,-0.13781 -1.71505,0.40347 -0.86435,0.26486 -1.72938,0.53243 -2.57282,0.85779 -0.33699,0.13 -0.63942,0.33616 -0.95893,0.50461 -0.60552,0.31923 -1.20392,0.65226 -1.81617,0.95839 -0.84964,0.42482 -1.07236,0.45968 -2.11853,0.60574 -0.28367,0.0396 -0.57446,0.0923 -0.85778,0.0502 -0.18606,-0.0276 -0.3527,-0.14168 -0.50461,-0.25258 -0.47301,-0.34525 -0.92856,-0.71589 -1.36187,-1.10982 -0.3081,-0.2801 -0.59441,-0.58558 -0.8578,-0.90809 -0.69657,-0.85293 -1.64404,-1.99899 -2.16934,-3.07743 -0.47784,-0.98101 -0.92591,-1.97653 -1.36187,-2.97684 -0.13601,-0.31211 -0.27664,-0.62663 -0.35318,-0.9584 -0.12617,-0.54687 -0.18093,-1.10803 -0.25203,-1.66474 -0.0299,-0.23416 -0.11122,-0.47813 -0.0508,-0.70634 0.0961,-0.36361 0.2713,-0.71422 0.50459,-1.00923 0.50203,-0.63481 1.21662,-1.25596 1.96763,-1.61444 0.47627,-0.22734 0.96738,-0.4239 1.463,-0.60522 1.10643,-0.40477 0.10661,0.16145 1.26125,-0.45431 0.0418,-0.0223 0.0599,-0.0761 0.10058,-0.10058 0.38419,-0.23084 -0.13282,0.22315 0.35318,-0.20226 0.19328,-0.1692 0.53912,-0.58942 0.65605,-0.70636 0.12639,-0.1264 0.26292,-0.24276 0.40349,-0.35317 0.0954,-0.0749 0.20187,-0.13454 0.30286,-0.20175 0.0505,-0.0337 0.0972,-0.0734 0.15143,-0.10058 0.18177,-0.0909 0.36527,-0.17949 0.55492,-0.25254 0.12466,-0.0481 0.115,0.0867 0.25203,-0.0502 0.0376,-0.0376 0.0416,-0.0989 0.0502,-0.15142 0.0249,-0.15014 0.11512,-0.31608 0.0502,-0.4538 -0.12062,-0.25647 -0.50498,-0.43761 -0.75666,-0.55491 -0.46088,-0.21479 -0.35475,-0.16872 -0.75664,-0.30288 -0.15127,-0.0505 -0.2991,-0.11275 -0.45379,-0.15143 -0.38409,-0.096 -0.77869,-0.14793 -1.16065,-0.25204 -0.38316,-0.10437 -1.25452,-0.57947 -1.46302,-0.70635 -0.0812,-0.0494 -0.1183,-0.15618 -0.20173,-0.20174 -0.10744,-0.0586 -0.23342,-0.12673 -0.35318,-0.10105 -0.14144,0.0303 -0.22382,0.18737 -0.35317,0.25204 -0.045,0.0225 -0.12506,0.0431 -0.15091,0 -0.0431,-0.0721 -0.0537,-0.18748 0,-0.25204 0.26465,-0.31777 0.75497,-0.49704 1.16012,-0.45431 0.12075,0.0128 0.20193,0.13484 0.30288,0.20228"
       id="path11" />
    <path
       style="fill:#ffffff;stroke:#000000;stroke-width:1.84874;stroke-linecap:round;stroke-linejoin:miter;stroke-dasharray:none;stroke-opacity:1;paint-order:stroke fill markers"
       d="m 194.45333,-281.84423 c -0.35318,-0.18498 -0.76661,-0.28448 -1.05952,-0.55492 -0.17212,-0.15893 -0.21675,-0.42445 -0.25206,-0.65604 -0.11701,-0.76765 -0.16093,-1.54537 -0.20172,-2.3208 -0.0266,-0.5039 -0.0707,-1.0142 0,-1.51382 0.16578,-1.1723 0.29879,-2.36932 0.70636,-3.48093 0.55178,-1.50505 2.23096,-4.72548 3.58151,-6.15489 1.15226,-1.21953 2.39964,-2.34998 3.68266,-3.43113 0.53857,-0.45383 1.14992,-0.81864 1.76588,-1.16014 0.45129,-0.25019 3.93765,-2.07149 5.09535,-2.37108 1.79771,-0.46523 3.59692,-1.02035 5.44853,-1.16066 0.45762,-0.0346 0.9994,0.24852 1.21044,0.65604 1.10099,2.1259 0.99646,3.67699 0.9584,5.85254 -0.02,1.14387 -0.0498,2.28772 -0.10058,3.43062 -0.0164,0.37111 -0.23694,0.76407 -0.10105,1.10982 0.14859,0.37823 0.99366,0.31058 1.26127,0.30287 0.44784,-0.0128 1.56659,-0.19942 2.01792,0.20175 0.26984,0.23985 0.40796,0.61053 0.50461,0.95838 0.0766,0.27551 0.061,0.57842 0,0.85778 -0.0902,0.41325 -0.63673,2.2047 -1.00923,2.82542 -0.23535,0.39219 -0.52618,0.74874 -0.80695,1.10983 -0.24889,0.32005 -0.26188,0.22487 -0.60523,0.45378 -0.0396,0.0265 -0.14737,0.0895 -0.10105,0.10105 0.22899,0.0572 0.4703,0.0502 0.70635,0.0502 1.15733,0 0.99225,-0.20984 2.52252,-0.4538 0.78126,-0.12453 1.82686,-0.3708 2.57284,0.15144 0.48137,0.33702 1.28791,1.14519 1.61443,1.76537 0.214,0.40642 0.3925,0.83161 0.55492,1.26126 0.0735,0.19464 0.10802,0.4021 0.15092,0.60574 0.0917,0.43568 0.18076,0.87216 0.25258,1.31157 0.13345,0.81678 -0.007,1.30507 0.60519,1.9173 0.1281,0.1281 0.33323,0.1431 0.50462,0.20176 0.81415,0.27857 1.26551,0.32166 1.91679,0.70634 0.20888,0.12338 0.43986,0.22643 0.60573,0.40348 0.0983,0.10483 0.10555,0.26761 0.15091,0.40399 0.15965,0.47956 0.14819,0.57685 0.10106,1.21044 -0.0127,0.17108 -0.0729,0.33538 -0.10106,0.50461 -0.0559,0.33553 -0.0931,0.67402 -0.15091,1.00923 -0.0688,0.39951 -0.25209,0.73997 0,1.16013 0.0611,0.102 0.23553,0.0334 0.35319,0.0508 0.3363,0.0498 0.67333,0.095 1.0087,0.15091 0.0868,0.0145 0.9514,0.1188 1.16013,0.30287 0.19698,0.17377 0.36357,0.38363 0.50461,0.60522 0.0971,0.15283 0.17273,0.32581 0.20173,0.50462 0.0729,0.44949 0.0765,0.90769 0.10106,1.3624 0.008,0.16795 0.0253,0.33831 0,0.5046 -0.0595,0.3913 -0.13879,0.78107 -0.25257,1.16014 -0.039,0.12986 -0.13142,0.23727 -0.20174,0.35316 -0.68835,1.13434 -0.61755,1.2731 -1.91679,1.96762 -1.69513,0.90615 -1.58252,0.5005 -3.38032,1.00922 -0.84998,0.24052 -1.98463,1.00026 -2.62313,1.4127 -0.68561,0.44289 -1.12115,0.87906 -1.76587,1.4127 -0.14766,0.12222 -0.31274,0.22338 -0.45379,0.35318 -0.27992,0.25758 -0.52652,0.54994 -0.80695,0.80695 -0.27739,0.25422 -1.03109,0.70519 -1.26126,0.80749 -0.97805,0.43467 -1.57905,0.36248 -2.72427,0.40347 -0.88598,0.0317 -2.38257,0.007 -3.07745,-0.40347 -0.86253,-0.51033 -1.80376,-1.92121 -2.16935,-2.92654 -0.25104,-0.69036 -0.40863,-1.41124 -0.60522,-2.11904 -0.0557,-0.20038 -0.0688,-0.41443 -0.15142,-0.60521 -0.13775,-0.31774 -0.30229,-0.62708 -0.50462,-0.90809 -0.10437,-0.14506 -0.25987,-0.24677 -0.40349,-0.35319 -0.72126,-0.5345 -1.12614,-0.69598 -1.76534,-1.31156 -0.20631,-0.19868 -0.40195,-0.4139 -0.55492,-0.65604 -0.26443,-0.41862 0.17466,-0.19406 -0.20226,-0.50463 -0.22321,-0.18392 -0.44713,-0.37526 -0.70582,-0.50461 -0.12135,-0.0607 -0.26996,-0.0292 -0.40401,-0.0502 -0.18572,-0.0293 -0.36689,-0.10105 -0.55492,-0.10105 -0.32707,0 -0.36103,0.58505 -0.40348,0.70634 -0.0475,0.13573 -0.066,0.28831 -0.15143,0.40399 -0.60317,0.81665 -0.87745,0.86866 -1.76534,1.41272 -0.1672,0.10247 -0.33787,0.19916 -0.50463,0.30233 -0.42282,0.2616 -0.51692,0.34606 -0.90808,0.55492 -0.13271,0.0708 -0.26077,0.15463 -0.40348,0.20226 -0.11275,0.0377 -0.23525,0.0349 -0.35317,0.0502 -0.26881,0.0349 -0.53817,0.0655 -0.80696,0.10058 -0.44336,0.0578 -0.42272,0.14651 -0.85779,-0.25204 -0.0667,-0.0611 -0.0628,-0.17001 -0.10105,-0.25204 -0.0795,-0.17037 -0.15734,-0.34218 -0.25205,-0.5046 -0.024,-0.0412 -0.0675,-0.0675 -0.10105,-0.10118 -0.0167,-0.0167 -0.0376,-0.0702 -0.0502,-0.0502 -0.12111,0.19031 -0.19486,0.40716 -0.30287,0.60522 -0.78318,1.43617 0.10283,-0.7531 -1.059,2.67397 -0.0905,0.26709 -0.14148,0.54825 -0.25256,0.80748 -0.58622,1.36799 -0.67286,1.40831 -1.71505,2.52252 -0.1221,0.13055 -0.26389,0.24154 -0.40347,0.35319 -0.7263,0.58084 -0.76606,0.57952 -1.41271,1.05951 -0.90683,0.67314 -1.12637,0.92011 -2.16935,1.4127 -0.20672,0.0978 -0.44821,0.10543 -0.65551,0.20175 -0.51853,0.2411 -1.00402,0.548 -1.51385,0.80695 -0.54988,0.27929 -1.10651,0.54524 -1.66474,0.80748 -0.225,0.10578 -1.86714,0.92978 -2.47168,1.0087 -0.61437,0.0803 -1.64136,0.10271 -2.3208,-0.0502 -0.33662,-0.0759 -1.16933,-0.24643 -1.56361,-0.55491 -0.28165,-0.22036 -0.60557,-0.4112 -0.80748,-0.70636 -0.24686,-0.36087 -0.35294,-0.80067 -0.5041,-1.21094 -0.30532,-0.82881 -0.27426,-1.34674 -0.404,-2.32079 -0.0293,-0.21914 -0.052,-0.4399 -0.10058,-0.65552 -0.0693,-0.30648 -0.15734,-0.6087 -0.25257,-0.9081 -0.0228,-0.0718 -0.0704,-0.13327 -0.10058,-0.20228 -0.0876,-0.20026 -0.16774,-0.40372 -0.25257,-0.60519 -0.25195,-0.59848 -0.21552,-0.44369 -0.45378,-1.36241 -0.0299,-0.11489 -0.0443,-0.23406 -0.0502,-0.35264 -0.0106,-0.21841 -0.1033,-0.46327 0,-0.65606 0.27673,-0.51665 1.02173,-0.90998 1.463,-1.26126 0.59794,-0.47598 1.16643,-0.98828 1.76536,-1.463 0.73783,-0.58483 1.51537,-1.12073 2.47223,-1.31211 0.397,-0.0794 0.83168,-0.0419 1.21043,0.10106 0.63885,0.2414 0.96612,0.72579 1.46301,1.10983 0.21902,0.29669 0.5777,0.3954 0.85777,0.60522 0.15352,0.115 0.29969,0.23966 0.45431,0.35316 0.0979,0.0717 0.20769,0.12648 0.30235,0.20226 0.15812,0.12659 0.30122,0.27087 0.45431,0.40349 0.0992,0.0858 0.17159,0.24117 0.30235,0.25203 0.20351,0.0169 0.38657,-0.31834 0.45429,-0.45376 0.0909,-0.18171 0.19626,-0.35958 0.25206,-0.55492 0.0145,-0.0511 -0.0306,-0.10212 -0.0502,-0.15144 -0.0139,-0.0349 -0.0296,-0.0697 -0.0502,-0.10105 -0.0466,-0.07 -0.1348,-0.11928 -0.15143,-0.20176 -0.007,-0.0366 0.0643,-0.0412 0.10058,-0.0502 0.0993,-0.0249 0.2038,-0.0249 0.30287,-0.0508 0.89093,-0.23249 0.89497,-0.23274 1.71504,-0.70583 0.15764,-0.091 0.30138,-0.2042 0.45431,-0.30287 0.36847,-0.23775 0.74321,-0.46575 1.10982,-0.70635 0.57864,-0.37975 0.61137,-0.411 1.10983,-1.00922 0.0628,-0.0753 0.12262,-0.15836 0.15144,-0.25204 0.10673,-0.34698 0.20245,-0.69991 0.25205,-1.05953 0.0186,-0.13427 -0.0398,-0.26835 -0.0502,-0.40349 -0.006,-0.0839 0.005,-0.16853 0,-0.25255 -0.0246,-0.39552 -0.0389,-0.5158 -0.10105,-0.85779 -0.002,-0.0145 -0.005,-0.26367 -0.10058,-0.30235 -0.16761,-0.0674 -0.22869,-0.0508 -0.40348,-0.0508 -0.23544,0 -0.47116,-0.0106 -0.70634,0 -0.11879,0.005 -0.23544,0.034 -0.35317,0.0508 -0.58862,0.0842 -1.17728,0.16796 -1.76589,0.25205 -0.23545,0.0337 -0.47113,0.0657 -0.70634,0.10105 -0.43742,0.0656 -0.87367,0.13924 -1.31158,0.20174 -0.30925,0.0442 -0.88722,0.1 -1.16012,0.0502 -0.32962,-0.0599 -0.63715,-0.20774 -0.95839,-0.30286 -1.41223,-0.41825 1.04328,0.38973 -1.05954,-0.35318 -0.0654,-0.0232 -0.13681,-0.0261 -0.20173,-0.0502 -0.0703,-0.0263 -0.1373,-0.0619 -0.20173,-0.10058 -0.0204,-0.0123 -0.0268,-0.0508 -0.0508,-0.0508 -0.0857,0 -0.1678,0.035 -0.25202,0.0508 -0.18477,0.0347 -0.37026,0.0655 -0.55492,0.10058 -0.76253,0.14519 -0.34684,0.0946 -1.31158,0.20175 -0.1846,0.0204 -0.36928,0.0442 -0.55492,0.0508 -0.28573,0.009 -0.57202,0.009 -0.85777,0 -0.20233,-0.007 -0.40369,-0.0316 -0.60522,-0.0508 -0.50467,-0.0482 -1.0092,-0.0979 -1.51332,-0.15143 -0.86085,-0.0915 -1.17131,-0.11406 -2.06874,-0.40349 -0.656,-0.21163 -0.10224,-0.1304 -0.5549,-0.45379 -0.15306,-0.10944 -0.34072,-0.16028 -0.50461,-0.25255 -0.10567,-0.0593 -0.19313,-0.14931 -0.30237,-0.20175 -0.31246,-0.15001 -0.65467,-0.23644 -0.95837,-0.40347 -0.18923,-0.10401 -1.33328,-0.85134 -1.61445,-1.16065 -0.34616,-0.38082 -0.63118,-0.81321 -0.95839,-1.21045 -1.53722,-1.86621 1.27496,1.7695 -1.31208,-1.61444 -0.72149,-0.94369 -0.49465,-0.66758 -1.36189,-2.06874 -0.43313,-0.69981 -1.00894,-1.61437 -1.26126,-2.32079 -0.2141,-0.59945 -0.32574,-1.23471 -0.40348,-1.86647 -0.0576,-0.46739 0,-0.9418 0,-1.41272 0,-0.11772 -0.0265,-0.23846 0,-0.35317 -0.0472,-0.21289 0.21014,-0.28627 0.25205,-0.45431 0.005,-0.0231 -0.0336,-0.0336 -0.0502,-0.0502 -0.10094,-0.10094 -0.20741,-0.19671 -0.30287,-0.30287 -0.0561,-0.0624 -0.10129,-0.13402 -0.1509,-0.20174 -0.30633,-0.41768 -0.62857,-0.81315 -0.80748,-1.31158 -0.0513,-0.1432 -0.34233,-1.31161 -0.4035,-1.71556 -0.0128,-0.0852 -0.21283,-1.24584 -0.15142,-1.61444 0.0429,-0.25747 0.0588,-0.53831 0.20174,-0.75665 0.37668,-0.57502 0.84024,-0.69392 1.31156,-1.10983 0.40146,-0.35426 0.7941,-0.7201 1.16066,-1.11035 0.15657,-0.1667 0.25602,-0.38011 0.40348,-0.55491 0.30705,-0.36403 0.63861,-0.70664 0.95839,-1.05953 0.16788,-0.18526 0.30759,-0.401 0.5046,-0.55492 0.34556,-0.26995 0.72405,-0.49785 1.10984,-0.70634 0.23894,-0.12914 0.5003,-0.2126 0.75665,-0.30235 0.0808,-0.0283 0.1707,-0.0779 0.25205,-0.0508 0.0505,0.0167 0.0189,0.10873 0.0508,0.15141 0.0475,0.0634 0.70986,0.87197 0.90809,1.00923 0.30351,0.21013 0.63516,0.37662 0.9584,0.55491 0.16463,0.0909 0.33756,0.16577 0.5046,0.25205 1.84025,0.95034 0.41244,0.23225 1.56361,0.80748 0.40368,0.20171 0.79946,0.42002 1.21097,0.60522 1.0186,0.45838 0.92616,0.17225 2.01792,1.00921 0.15133,0.11595 0.38719,0.59989 0.45378,0.80697 0.24577,0.45662 0.25009,0.98129 0.40348,1.46352 0.0759,0.23829 0.16193,0.4733 0.25257,0.70636 0.14486,0.37248 0.30536,0.73872 0.45377,1.10983 0.0533,0.13337 0.0833,0.27699 0.15144,0.40346 0.60239,1.11853 0.42392,0.68604 1.16013,1.61446 0.19433,0.24506 0.36532,0.50788 0.55492,0.75664 0.0797,0.10448 0.18789,0.18844 0.25256,0.30287 0.42091,0.74466 0.33684,0.74222 0.60522,1.41269 0.0279,0.0698 0.0715,0.13261 0.10106,0.20176 0.021,0.0489 0.0287,0.10282 0.0502,0.15142 0.0459,0.10319 0.11169,0.19721 0.15143,0.30289 0.0122,0.0313 -0.015,0.0706 0,0.10058 0.055,0.11039 0.11512,0.0938 0.20174,0.15143 0.07,0.0466 0.1308,0.10637 0.20173,0.15144 0.41188,0.26212 0.48439,0.22895 0.9584,0.5549 0.0784,0.0539 0.1345,0.13449 0.20175,0.20174 0.11772,0.11772 0.24769,0.22435 0.35317,0.35318 0.0475,0.0582 0.0573,0.14055 0.10105,0.20174 0.0416,0.0582 0.10945,0.0937 0.15143,0.15144 0.0933,0.12825 0.16411,0.2715 0.25204,0.40348 0.0803,0.12037 0.17628,0.22997 0.25204,0.35317 0.0591,0.0961 0.0858,0.21105 0.15144,0.30285 0.022,0.0306 0.0699,0.0713 0.10106,0.0502 0.0443,-0.0295 0.0326,-0.10118 0.0502,-0.15144 0.0832,-0.23577 0.18705,-0.46496 0.25205,-0.70636 0.0532,-0.1975 0.0792,-0.40186 0.10105,-0.60521 0.0453,-0.41932 0.0898,-0.83964 0.10058,-1.26127 0.006,-0.23596 -0.0217,-0.47203 -0.0502,-0.70635 -0.13378,-1.09821 -0.15693,-1.31345 -0.45376,-2.27048 -0.26227,-0.84551 -0.36711,-0.81034 -0.95893,-1.81617 -1.39135,-2.36468 -0.18019,-0.29075 -1.31156,-2.4214 -0.46252,-0.87104 -0.23038,-0.1553 -0.60523,-1.36241 -0.0617,-0.1986 -0.10094,-0.40345 -0.15143,-0.6052 -0.11784,-0.47091 -0.26195,-0.93596 -0.35317,-1.4127 -0.0604,-0.31567 -0.0628,-0.63976 -0.10058,-0.95891 -0.0799,-0.67317 -0.15435,-1.34719 -0.25257,-2.01792 -0.10377,-0.70856 -0.22807,-1.41397 -0.35317,-2.11906 -0.0599,-0.33761 -0.1333,-0.67271 -0.20174,-1.00869 -0.11654,-0.5721 -0.23877,-1.14305 -0.35318,-1.71559 -0.0537,-0.26833 -0.11512,-0.53565 -0.1509,-0.80693 -0.0819,-0.6206 -0.15122,-1.24313 -0.20228,-1.86703 -0.0327,-0.40099 0.0296,-1.39759 0.15145,-1.66473 0.21515,-0.47126 0.59724,-0.84684 0.90809,-1.26126 0.38642,-0.51518 1.01251,-1.00192 1.463,-1.3624 0.44149,-0.35326 1.26467,-1.09588 1.96761,-1.26126 0.36345,-0.0855 0.73714,-0.12891 1.10983,-0.15144 0.1854,-0.0106 0.37104,0.0245 0.55491,0.0508 0.40511,0.0579 0.81192,0.11111 1.21097,0.20175 0.69857,0.15865 1.26637,0.32867 1.81617,0.80695 0.44744,0.38923 0.63018,1.33585 0.75666,1.76588 0.0967,0.32884 0.21406,1.14235 0.25204,1.36239 0.13272,0.76881 0.20995,0.86966 0.10106,1.86649 -0.054,0.49507 -0.17177,0.98256 -0.30288,1.463 -0.14186,0.51981 -0.48315,1.11473 -0.75666,1.56413 -0.51049,0.83882 -0.0507,-0.25337 -0.80748,1.26127 -0.0784,0.15705 -0.10059,0.3364 -0.15091,0.5046 -0.18496,0.33642 -0.3644,0.67593 -0.55492,1.00923 -0.0787,0.13775 -0.1816,0.26156 -0.25257,0.40349 -0.18178,0.36357 -0.33487,0.71249 -0.40347,1.10982 -0.0607,0.35155 -0.0972,0.70691 -0.15143,1.05951 -0.10495,0.68209 -0.26375,1.43501 -0.30235,2.11906 0,1.7613 0.0287,0.96922 -0.0508,2.32079 -0.0168,0.28592 -0.0336,0.57186 -0.0502,0.85779 -0.0337,0.353 -0.0774,0.70517 -0.10106,1.059 -0.009,0.1511 0,0.30286 0,0.4543 0,0.11772 0,0.23544 0,0.35318 0,0.45279 -0.0136,0.91224 0.0508,1.3624 0.015,0.10507 0.0669,0.20159 0.10059,0.30234 0.0988,0.2962 0.19284,0.79792 0.45431,1.05951 0.21926,0.2194 0.46153,0.41532 0.70634,0.60575 0.31536,0.24531 0.23893,-0.11535 0.50408,0.50408 0.0397,0.0928 0.005,0.20204 0,0.30289 -0.0122,0.23575 -0.0184,0.47246 -0.0502,0.70634 -0.0132,0.0971 -0.16698,0.64533 -0.20173,0.75666 -0.0475,0.15237 -0.10094,0.30286 -0.15144,0.4543 -0.0184,0.0551 -0.0955,0.23456 -0.0502,0.30236 0.0467,0.0698 0.13179,0.10472 0.20174,0.15141 0.0814,0.0544 0.16692,0.10283 0.25203,0.15145 0.0327,0.0188 0.0745,0.0238 0.10106,0.0502 0.0597,0.0597 0.11725,0.12528 0.15144,0.20226 0.0602,0.13553 0.0502,0.26419 0.0502,0.40348 0,0.15126 0,0.30252 0,0.45379 0,0.10093 -0.0245,0.20491 0,0.30286 0.0508,0.20326 0.14358,0.52139 0.35317,0.65606 0.17723,0.11382 0.3697,0.20201 0.55492,0.30234 0.42082,0.22789 0.77143,0.36795 1.10983,0.70634 0.0533,0.0533 0.0384,0.16041 0.10105,0.20227 0.15052,0.10047 0.5851,0.0398 0.50409,0.20174 -0.13459,0.26893 -0.52625,0.29555 -0.80695,0.40347 -0.0667,0.0256 0.0876,-0.11952 0.15142,-0.15144 0.20939,-0.1046 0.42349,-0.28296 0.65553,-0.25203 1.36756,0.18231 0.68343,0.20503 0.9081,0.65552 0.007,0.015 0.0336,0 0.0502,0 0.0337,0 0.0773,-0.0238 0.10105,0 0.0238,0.0238 -0.0132,0.0701 0,0.10105 0.0386,0.0902 0.0995,0.16891 0.15144,0.25206 0.032,0.0513 0.0502,0.11784 0.10058,0.15142 0.10661,0.0711 0.23612,0.0994 0.35318,0.15144 0.0344,0.0152 0.0675,0.0336 0.10105,0.0502"
       id="path12" />
    <path
       style="fill:#ffffff;stroke:#4d4d4d;stroke-width:1.48963;stroke-linecap:round;stroke-linejoin:miter;stroke-dasharray:none;stroke-opacity:1;paint-order:stroke fill markers"
       d="m 162.03368,-219.02721 c -1.67427,-7.43491 5.68211,-13.27892 7.08583,-8.26141 8.9717,-7.14381 20.76327,8.39604 10.90525,15.1266 -8.22426,5.1908 -4.54339,13.70759 -3.84323,20.23854 -8.47231,5.0146 -19.63855,1.49915 -18.00493,-9.65686 -7.92258,4.03849 -14.39754,-11.72931 -21.89565,-8.85004 -3.02535,-7.81836 7.09554,-23.2838 11.87422,-10.45546 3.73301,-6.90155 11.39058,14.67931 14.11599,2.16057 l 0.29376,-2.31545"
       id="path7-7" />
    <path
       style="fill:#ffffff;stroke:#4d4d4d;stroke-width:1.84874;stroke-linecap:round;stroke-linejoin:miter;stroke-dasharray:none;stroke-opacity:1;paint-order:stroke fill markers"
       d="m 128.70266,-221.74555 c -10.91872,-2.21607 -1.11289,-21.06643 7.14215,-16.41377 2.70515,3.92708 5.26136,15.14562 8.74717,4.57297 2.64562,-4.63307 3.11937,-4.17793 3.24593,-5.67197 1.17317,-4.32125 7.96905,-9.27215 5.72673,-1.4662 17.92377,1.654 1.25789,14.40567 -6.87321,17.14886 -2.95591,6.44402 11.06381,15.02646 -2.29902,19.36876 -7.11643,6.33693 -20.72979,0.42975 -15.89582,-9.55751 7.31134,-1.90463 4.50052,-6.73145 2.32496,-7.42613"
       id="path11-2" />
    <path
       style="fill:#ffffff;stroke:#4d4d4d;stroke-width:1.84874;stroke-linecap:round;stroke-linejoin:miter;stroke-dasharray:none;stroke-opacity:1;paint-order:stroke fill markers"
       d="m 197.48925,-217.34785 c -5.18663,-10.04829 5.99526,-19.63436 14.71374,-22.4203 10.87054,1.25415 4.76117,17.27718 14.28383,20.00403 7.95892,6.37081 10.02068,18.49735 -2.25074,20.8812 -10.3642,6.71112 -15.1439,-16.70667 -24.23983,-1.83403 -3.95185,8.81589 -20.01644,11.8072 -18.30561,-1.27716 1.34979,-6.55447 20.66096,0.0307 12.75241,-7.98711 -10.21334,0.99359 -22.29454,-2.6918 -23.7017,-14.41977 -3.81024,-12.25323 13.76942,-14.17266 15.28722,-2.36753 5.05563,9.97201 6.22913,-0.4563 2.41003,-5.38048 -6.22895,-7.22617 1.97807,-25.04805 8.33465,-11.12147 -3.61838,8.05396 -7.28784,19.54909 1.29687,26.4707 l 1.18522,0.81353"
       id="path12-7" />
    <path
       style="fill:#ffffff;stroke:#999999;stroke-width:1.48963;stroke-linecap:round;stroke-linejoin:miter;stroke-dasharray:none;stroke-opacity:1;paint-order:stroke fill markers"
       d="m 161.83524,-149.7372 c -1.75412,-6.64996 5.84556,-11.49015 11.7892,-10.30231 7.80403,0.0985 11.6414,8.96576 6.95632,14.99075 -3.0036,6.0981 -6.64576,12.12591 -6.7083,19.1406 0.28512,6.9434 -9.03037,6.34988 -12.41464,2.37994 -5.13962,-5.17912 -9.31875,-12.94755 -17.50686,-13.3153 -7.80079,-1.90824 -10.5283,-15.52418 -2.01296,-18.17103 5.96776,-0.60126 11.21658,3.36216 15.21527,7.35344 3.59015,3.15211 5.8286,-0.71222 5.21321,-4.08961"
       id="path7-7-2" />
    <path
       style="fill:#ffffff;stroke:#999999;stroke-width:1.84874;stroke-linecap:round;stroke-linejoin:miter;stroke-dasharray:none;stroke-opacity:1;paint-order:stroke fill markers"
       d="m 128.50422,-152.45554 c -5.71846,-2.03248 -6.12347,-10.32222 -0.81135,-13.15213 4.55811,-4.34178 12.61021,-3.05572 14.46206,3.06667 4.00799,-3.44409 6.86537,-10.65429 13.06061,-10.04854 6.7442,2.523 4.56388,10.78076 -0.67023,13.66407 -5.27601,3.67611 -8.87944,10.09741 -5.25489,16.15373 1.75216,7.25885 -7.71,11.42525 -13.68176,9.9424 -7.2452,-0.26658 -10.66942,-8.80819 -4.90634,-13.47859 1.90217,-1.46547 2.50915,-4.37025 -0.0792,-5.5926"
       id="path11-2-2" />
    <path
       style="fill:#ffffff;stroke:#999999;stroke-width:1.84874;stroke-linecap:round;stroke-linejoin:miter;stroke-dasharray:none;stroke-opacity:1;paint-order:stroke fill markers"
       d="m 197.29081,-148.05785 c -5.36965,-9.60688 5.51299,-22.44972 15.82964,-20.35513 6.05453,1.58436 5.55794,9.09298 9.03985,13.20599 4.22016,5.69107 11.49822,11.4853 9.52389,19.4141 -2.00503,6.97077 -10.67683,8.97767 -16.28952,4.95172 -5.29325,-3.58219 -13.5606,-5.0017 -17.13423,1.64822 -3.29873,5.16965 -12.24176,6.35017 -15.87561,1.00712 -2.99823,-7.6166 8.37261,-6.87103 9.99883,-10.90021 -6.48946,-2.55701 -15.73162,-1.92253 -19.70996,-9.61527 -5.65792,-5.50866 -1.20047,-20.27851 7.67755,-15.17376 2.3132,1.90171 10.46102,9.72942 7.70795,2.47612 -3.02668,-4.51476 -3.72136,-11.47369 1.37736,-14.80288 8.38335,-3.05104 5.10805,10.34521 3.83291,14.75762 -1.38636,5.49702 -0.39975,12.71524 5.78742,14.74798"
       id="path12-7-6" />
    <path
       style="fill:#ffffff;stroke:#cccccc;stroke-width:1.48963;stroke-linecap:round;stroke-linejoin:miter;stroke-dasharray:none;stroke-opacity:1;paint-order:stroke fill markers"
       d="m 161.49018,-84.731101 c 0.14873,-6.229967 7.50173,-9.609716 12.84844,-7.200744 8.31481,2.182044 10.34302,11.81315 7.61689,18.970382 -3.85713,11.632438 -20.22788,18.007657 -30.04085,9.737081 -5.91584,-3.603295 -11.85581,-8.949128 -11.29429,-16.57826 -1.17659,-7.151653 7.59468,-9.634214 12.12079,-5.321981 2.83447,1.777269 8.18129,2.591572 9.28027,-1.62"
       id="path7-7-2-1" />
    <path
       style="fill:#ffffff;stroke:#cccccc;stroke-width:1.84874;stroke-linecap:round;stroke-linejoin:miter;stroke-dasharray:none;stroke-opacity:1;paint-order:stroke fill markers"
       d="m 128.15916,-87.449443 c -3.67001,-5.117331 -0.0651,-12.050407 5.20935,-14.339807 6.19359,-3.63264 16.00537,-6.0585 21.1248,0.56434 4.09516,5.94996 1.06497,13.796428 -2.25898,19.394619 -3.76723,5.383976 -8.29369,12.552293 -15.83736,11.871091 -8.5,-0.649975 -9.87806,-10.906134 -6.11887,-16.935233"
       id="path11-2-2-0" />
    <path
       style="fill:#ffffff;stroke:#cccccc;stroke-width:1.84874;stroke-linecap:round;stroke-linejoin:miter;stroke-dasharray:none;stroke-opacity:1;paint-order:stroke fill markers"
       d="m 196.94575,-83.051746 c -3.33489,-7.363643 2.95141,-15.508182 10.38269,-16.66339 7.83661,-2.246654 15.37023,2.585499 20.3704,8.1826 6.02543,7.543894 4.90803,21.285591 -4.7916,25.205384 -4.72451,1.775267 -9.79372,-0.420475 -14.58483,1.217345 -6.54211,1.306697 -14.34524,4.125619 -20.22109,-0.490673 -3.08822,-6.455546 -7.81242,-11.681317 -13.48558,-16.167685 -4.94441,-3.998189 -4.4882,-12.483711 2.1483,-14.206156 5.56071,-1.929878 10.92779,-7.115939 15.39845,-8.967549 6.0635,5.536795 -1.34919,14.059944 2.29775,20.476451 0.87081,1.547127 2.51907,2.522745 4.25161,2.775286"
       id="path12-7-6-6" />
  </g>
</svg>
